<?xml version="1.0" encoding="UTF-8" standalone="no"?>
<svg
   xmlns:dc="http://purl.org/dc/elements/1.1/"
   xmlns:cc="http://creativecommons.org/ns#"
   xmlns:rdf="http://www.w3.org/1999/02/22-rdf-syntax-ns#"
   xmlns:svg="http://www.w3.org/2000/svg"
   xmlns="http://www.w3.org/2000/svg"
   xmlns:sodipodi="http://sodipodi.sourceforge.net/DTD/sodipodi-0.dtd"
   xmlns:inkscape="http://www.inkscape.org/namespaces/inkscape"
   width="50.799999mm"
   height="128.5mm"
   viewBox="0 0 2580.64 6527.8"
   version="1.1"
   id="svg8"
   inkscape:version="1.0.1 (3bc2e813f5, 2020-09-07)"
   sodipodi:docname="berlin.svg">
  <defs
     id="defs2">
    <filter
       inkscape:collect="always"
       style="color-interpolation-filters:sRGB"
       id="filter867"
       x="-6.7128935e-05"
       width="1.0001343"
       y="-0.00056498424"
       height="1.00113">
      <feGaussianBlur
         inkscape:collect="always"
         stdDeviation="0.097951325"
         id="feGaussianBlur869" />
    </filter>
  </defs>
  <sodipodi:namedview
     id="base"
     pagecolor="#ffffff"
     bordercolor="#666666"
     borderopacity="1.0"
     inkscape:pageopacity="0.0"
     inkscape:pageshadow="2"
     inkscape:zoom="1.979899"
     inkscape:cx="-89.958291"
     inkscape:cy="261.9595"
     inkscape:document-units="mm"
     inkscape:current-layer="layer1"
     inkscape:document-rotation="0"
     showgrid="false"
     inkscape:pagecheckerboard="true"
     fit-margin-top="0"
     fit-margin-left="0"
     fit-margin-right="0"
     fit-margin-bottom="0"
     lock-margins="true"
     height="128.5mm"
     inkscape:window-width="2560"
     inkscape:window-height="1377"
     inkscape:window-x="-8"
     inkscape:window-y="-8"
     inkscape:window-maximized="1"
     inkscape:snap-grids="false"
     inkscape:snap-others="false"
     inkscape:snap-to-guides="false"
     inkscape:snap-nodes="false" />
  <metadata
     id="metadata5">
    <rdf:RDF>
      <cc:Work
         rdf:about="">
        <dc:format>image/svg+xml</dc:format>
        <dc:type
           rdf:resource="http://purl.org/dc/dcmitype/StillImage" />
        <dc:title />
      </cc:Work>
    </rdf:RDF>
  </metadata>
  <g
     inkscape:label="Panel"
     inkscape:groupmode="layer"
     id="layer1"
     style="display:inline">
    <rect
       style="fill:#666666;fill-opacity:1;stroke:none;stroke-width:50.8"
       id="rect833"
       width="2580.6401"
       height="6527.8003"
       x="5.0799999"
       y="5.0799999" />
    <g
       aria-label="Grainednoise"
       id="text837"
       style="font-style:normal;font-variant:normal;font-weight:normal;font-stretch:normal;font-size:179.211px;line-height:1.25;font-family:Modelo;-inkscape-font-specification:'Modelo, Normal';font-variant-ligatures:normal;font-variant-caps:normal;font-variant-numeric:normal;font-variant-east-asian:normal;fill:#ffffff;fill-opacity:1;stroke:none;stroke-width:13.4408;filter:url(#filter867)">
      <path
         d="m 573.96807,201.24539 v -89.6055 h 110.7524 v -17.9211 h -128.6735 v 125.4477 h 119.89216 v -17.9211 l -55.73462,-55.73462 -12.72398,12.72398 43.18985,43.01064 z"
         style="font-style:normal;font-variant:normal;font-weight:normal;font-stretch:normal;font-size:179.211px;font-family:Modelo;-inkscape-font-specification:'Modelo, Normal';font-variant-ligatures:normal;font-variant-caps:normal;font-variant-numeric:normal;font-variant-east-asian:normal;fill:#ffffff;stroke-width:13.4408"
         id="path868" />
      <path
         d="m 716.0821,219.16649 v -71.6844 h 54.65936 v -17.9211 H 698.161 v 89.6055 z"
         style="font-style:normal;font-variant:normal;font-weight:normal;font-stretch:normal;font-size:179.211px;font-family:Modelo;-inkscape-font-specification:'Modelo, Normal';font-variant-ligatures:normal;font-variant-caps:normal;font-variant-numeric:normal;font-variant-east-asian:normal;fill:#ffffff;stroke-width:13.4408"
         id="path870" />
      <path
         d="m 876.83403,219.16649 v -89.6055 h -95.51946 v 17.9211 h 54.83857 l -53.7633,53.7633 v 17.9211 z m -17.9211,-70.96756 v 53.04646 h -53.04645 z"
         style="font-style:normal;font-variant:normal;font-weight:normal;font-stretch:normal;font-size:179.211px;font-family:Modelo;-inkscape-font-specification:'Modelo, Normal';font-variant-ligatures:normal;font-variant-caps:normal;font-variant-numeric:normal;font-variant-east-asian:normal;fill:#ffffff;stroke-width:13.4408"
         id="path872" />
      <path
         d="m 911.95909,118.2707 c 9.67739,0 17.02505,-7.70608 17.02505,-17.20426 0,-9.498182 -7.34766,-17.204255 -17.02505,-17.204255 -9.49818,0 -17.20426,7.706073 -17.20426,17.204255 0,9.49818 7.70608,17.20426 17.20426,17.20426 z m 0,-13.44083 c -2.15053,0 -3.76343,-1.6129 -3.76343,-3.76343 0,-2.150531 1.6129,-3.76343 3.76343,-3.76343 1.97132,0 3.76343,1.612899 3.76343,3.76343 0,2.15053 -1.79211,3.76343 -3.76343,3.76343 z m 8.96055,114.33662 v -89.6055 h -17.9211 v 89.6055 z"
         style="font-style:normal;font-variant:normal;font-weight:normal;font-stretch:normal;font-size:179.211px;font-family:Modelo;-inkscape-font-specification:'Modelo, Normal';font-variant-ligatures:normal;font-variant-caps:normal;font-variant-numeric:normal;font-variant-east-asian:normal;fill:#ffffff;stroke-width:13.4408"
         id="path874" />
      <path
         d="m 964.64692,219.16649 v -71.6844 h 51.43358 v 71.6844 h 17.9211 v -89.6055 h -87.27578 v 89.6055 z"
         style="font-style:normal;font-variant:normal;font-weight:normal;font-stretch:normal;font-size:179.211px;font-family:Modelo;-inkscape-font-specification:'Modelo, Normal';font-variant-ligatures:normal;font-variant-caps:normal;font-variant-numeric:normal;font-variant-east-asian:normal;fill:#ffffff;stroke-width:13.4408"
         id="path876" />
      <path
         d="m 1155.6858,219.16649 v -17.9211 h -55.0177 l 53.7633,-53.7633 v -17.9211 h -94.4442 v 89.6055 z m -77.7775,-71.6844 h 53.2256 l -53.2256,53.04645 z"
         style="font-style:normal;font-variant:normal;font-weight:normal;font-stretch:normal;font-size:179.211px;font-family:Modelo;-inkscape-font-specification:'Modelo, Normal';font-variant-ligatures:normal;font-variant-caps:normal;font-variant-numeric:normal;font-variant-east-asian:normal;fill:#ffffff;stroke-width:13.4408"
         id="path878" />
      <path
         d="M 1264.2874,219.16649 V 93.71879 h -17.9211 v 35.8422 h -71.326 v 89.6055 z m -71.326,-71.6844 h 53.4049 v 53.7633 h -53.4049 z"
         style="font-style:normal;font-variant:normal;font-weight:normal;font-stretch:normal;font-size:179.211px;font-family:Modelo;-inkscape-font-specification:'Modelo, Normal';font-variant-ligatures:normal;font-variant-caps:normal;font-variant-numeric:normal;font-variant-east-asian:normal;fill:#ffffff;stroke-width:13.4408"
         id="path880" />
      <path
         d="m 1308.194,219.16649 v -71.6844 h 51.4336 v 71.6844 h 17.9211 v -89.6055 h -87.2758 v 89.6055 z"
         style="font-style:normal;font-variant:normal;font-weight:normal;font-stretch:normal;font-size:179.211px;font-family:Modelo;-inkscape-font-specification:'Modelo, Normal';font-variant-ligatures:normal;font-variant-caps:normal;font-variant-numeric:normal;font-variant-east-asian:normal;fill:#ffffff;stroke-width:13.4408"
         id="path882" />
      <path
         d="m 1446.1865,222.5715 c 27.0609,0 48.387,-21.1469 48.387,-48.20776 0,-27.06086 -21.3261,-48.20776 -48.387,-48.20776 -26.8816,0 -48.2077,21.1469 -48.2077,48.20776 0,27.06086 21.3261,48.20776 48.2077,48.20776 z m 0,-18.10031 c -16.6666,0 -30.1074,-13.44083 -30.1074,-30.10745 0,-16.66662 13.4408,-30.10745 30.1074,-30.10745 16.8458,0 30.2867,13.44083 30.2867,30.10745 0,16.66662 -13.4409,30.10745 -30.2867,30.10745 z"
         style="font-style:normal;font-variant:normal;font-weight:normal;font-stretch:normal;font-size:179.211px;font-family:Modelo;-inkscape-font-specification:'Modelo, Normal';font-variant-ligatures:normal;font-variant-caps:normal;font-variant-numeric:normal;font-variant-east-asian:normal;fill:#ffffff;stroke-width:13.4408"
         id="path884" />
      <path
         d="m 1523.9638,118.2707 c 9.6774,0 17.025,-7.70608 17.025,-17.20426 0,-9.498182 -7.3476,-17.204255 -17.025,-17.204255 -9.4982,0 -17.2043,7.706073 -17.2043,17.204255 0,9.49818 7.7061,17.20426 17.2043,17.20426 z m 0,-13.44083 c -2.1505,0 -3.7634,-1.6129 -3.7634,-3.76343 0,-2.150531 1.6129,-3.76343 3.7634,-3.76343 1.9713,0 3.7634,1.612899 3.7634,3.76343 0,2.15053 -1.7921,3.76343 -3.7634,3.76343 z m 8.9605,114.33662 v -89.6055 h -17.9211 v 89.6055 z"
         style="font-style:normal;font-variant:normal;font-weight:normal;font-stretch:normal;font-size:179.211px;font-family:Modelo;-inkscape-font-specification:'Modelo, Normal';font-variant-ligatures:normal;font-variant-caps:normal;font-variant-numeric:normal;font-variant-east-asian:normal;fill:#ffffff;stroke-width:13.4408"
         id="path886" />
      <path
         d="m 1634.3576,219.16649 v -17.9211 l -39.9641,-39.96405 32.7956,-32.97483 -12.5447,-12.54477 -45.3404,45.5196 39.964,39.96405 h -61.6486 v 17.9211 z"
         style="font-style:normal;font-variant:normal;font-weight:normal;font-stretch:normal;font-size:179.211px;font-family:Modelo;-inkscape-font-specification:'Modelo, Normal';font-variant-ligatures:normal;font-variant-caps:normal;font-variant-numeric:normal;font-variant-east-asian:normal;fill:#ffffff;stroke-width:13.4408"
         id="path888" />
      <path
         d="m 1749.769,219.16649 v -17.9211 h -55.0178 l 53.7633,-53.7633 v -17.9211 h -94.4442 v 89.6055 z m -77.7776,-71.6844 h 53.2257 l -53.2257,53.04645 z"
         style="font-style:normal;font-variant:normal;font-weight:normal;font-stretch:normal;font-size:179.211px;font-family:Modelo;-inkscape-font-specification:'Modelo, Normal';font-variant-ligatures:normal;font-variant-caps:normal;font-variant-numeric:normal;font-variant-east-asian:normal;fill:#ffffff;stroke-width:13.4408"
         id="path890" />
    </g>
    <path
       id="path845"
       d="m 152.4,350.24386 c 2283.5533,0 2269.1309,-9.59473 2269.1309,-9.59473"
       style="fill:#ffffff;fill-opacity:1;fill-rule:nonzero;stroke:#ffffff;stroke-width:13.468;stroke-linecap:butt;stroke-linejoin:miter;stroke-miterlimit:4;stroke-dasharray:none;stroke-opacity:1" />
    <g
       aria-label="X-coor"
       id="text847"
       style="font-style:normal;font-variant:normal;font-weight:normal;font-stretch:normal;font-size:179.211px;line-height:1.25;font-family:Modelo;-inkscape-font-specification:'Modelo, Normal';font-variant-ligatures:normal;font-variant-caps:normal;font-variant-numeric:normal;font-variant-east-asian:normal;fill:#ffffff;fill-opacity:1;stroke:none;stroke-width:13.4408">
      <path
         d="m 251.75204,6002.4117 51.97119,51.792 12.54477,-12.5448 -51.97119,-51.7919 51.97119,-51.792 -12.54477,-12.5448 -51.97119,51.792 -51.79198,-51.792 -12.54477,12.5448 51.79198,51.792 -51.79198,51.7919 12.54477,12.5448 z"
         id="path958" />
      <path
         d="m 375.04888,6009.401 v -17.9211 h -53.22567 v 17.9211 z"
         id="path960" />
      <path
         d="m 484.00911,6052.5908 v -17.9211 h -69.53386 v -53.7633 h 69.53386 v -17.9211 h -87.45496 v 89.6055 z"
         id="path962" />
      <path
         d="m 543.32749,6055.9958 c 27.06086,0 48.38697,-21.1469 48.38697,-48.2077 0,-27.0609 -21.32611,-48.2078 -48.38697,-48.2078 -26.88165,0 -48.20776,21.1469 -48.20776,48.2078 0,27.0608 21.32611,48.2077 48.20776,48.2077 z m 0,-18.1003 c -16.66662,0 -30.10745,-13.4408 -30.10745,-30.1074 0,-16.6667 13.44083,-30.1075 30.10745,-30.1075 16.84583,0 30.28666,13.4408 30.28666,30.1075 0,16.6666 -13.44083,30.1074 -30.28666,30.1074 z"
         id="path964" />
      <path
         d="m 654.61725,6055.9958 c 27.06086,0 48.38697,-21.1469 48.38697,-48.2077 0,-27.0609 -21.32611,-48.2078 -48.38697,-48.2078 -26.88165,0 -48.20776,21.1469 -48.20776,48.2078 0,27.0608 21.32611,48.2077 48.20776,48.2077 z m 0,-18.1003 c -16.66662,0 -30.10744,-13.4408 -30.10744,-30.1074 0,-16.6667 13.44082,-30.1075 30.10744,-30.1075 16.84584,0 30.28666,13.4408 30.28666,30.1075 0,16.6666 -13.44082,30.1074 -30.28666,30.1074 z"
         id="path966" />
      <path
         d="m 741.17587,6052.5908 v -71.6844 h 54.65935 v -17.9211 h -72.58045 v 89.6055 z"
         id="path968" />
    </g>
    <g
       aria-label="Berlin"
       transform="matrix(0,-0.97091528,1.029956,0,0,0)"
       id="text1518"
       style="font-style:normal;font-variant:normal;font-weight:bold;font-stretch:normal;font-size:1252.79px;line-height:1.25;font-family:Modelo;-inkscape-font-specification:'Modelo, Bold';font-variant-ligatures:normal;font-variant-caps:normal;font-variant-numeric:normal;font-variant-east-asian:normal;fill:#808080;stroke-width:13.0499">
      <path
         d="m -5752.5897,2309.9187 v -175.3906 l -263.0859,-263.0859 263.0859,-263.0859 v -175.3906 h -838.1165 v 876.953 z m -645.1868,-701.5624 h 399.64 l -263.0859,263.0859 263.0859,263.0859 h -399.64 z"
         style="font-style:normal;font-variant:normal;font-weight:bold;font-stretch:normal;font-size:1252.79px;font-family:Modelo;-inkscape-font-specification:'Modelo, Bold';font-variant-ligatures:normal;font-variant-caps:normal;font-variant-numeric:normal;font-variant-east-asian:normal;fill:#808080;stroke-width:13.0499"
         id="path1004" />
      <path
         d="m -4949.5545,2309.9187 v -175.3906 h -285.6361 l 275.6138,-275.6138 v -175.3906 h -676.5066 v 626.395 z m -511.1383,-451.0044 h 273.1082 l -273.1082,273.1082 z"
         style="font-style:normal;font-variant:normal;font-weight:bold;font-stretch:normal;font-size:1252.79px;font-family:Modelo;-inkscape-font-specification:'Modelo, Bold';font-variant-ligatures:normal;font-variant-caps:normal;font-variant-numeric:normal;font-variant-east-asian:normal;fill:#808080;stroke-width:13.0499"
         id="path1006" />
      <path
         d="m -4652.645,2309.9187 v -451.0044 h 339.5061 v -175.3906 h -514.8967 v 626.395 z"
         style="font-style:normal;font-variant:normal;font-weight:bold;font-stretch:normal;font-size:1252.79px;font-family:Modelo;-inkscape-font-specification:'Modelo, Bold';font-variant-ligatures:normal;font-variant-caps:normal;font-variant-numeric:normal;font-variant-east-asian:normal;fill:#808080;stroke-width:13.0499"
         id="path1008" />
      <path
         d="m -4033.7673,2309.9187 v -876.953 h -175.3906 v 876.953 z"
         style="font-style:normal;font-variant:normal;font-weight:bold;font-stretch:normal;font-size:1252.79px;font-family:Modelo;-inkscape-font-specification:'Modelo, Bold';font-variant-ligatures:normal;font-variant-caps:normal;font-variant-numeric:normal;font-variant-east-asian:normal;fill:#808080;stroke-width:13.0499"
         id="path1010" />
      <path
         d="m -3793.2329,1613.3674 c 73.9146,0 130.2902,-57.6283 130.2902,-129.0373 0,-72.6619 -56.3756,-130.2902 -130.2902,-130.2902 -71.409,0 -129.0374,57.6283 -129.0374,130.2902 0,71.409 57.6284,129.0373 129.0374,129.0373 z m 0,-114.0039 c -8.7695,0 -15.0335,-6.2639 -15.0335,-15.0334 0,-8.7696 6.264,-16.2863 15.0335,-16.2863 8.7695,0 16.2863,7.5167 16.2863,16.2863 0,8.7695 -7.5168,15.0334 -16.2863,15.0334 z m 87.6953,810.5552 v -626.395 h -175.3906 v 626.395 z"
         style="font-style:normal;font-variant:normal;font-weight:bold;font-stretch:normal;font-size:1252.79px;font-family:Modelo;-inkscape-font-specification:'Modelo, Bold';font-variant-ligatures:normal;font-variant-caps:normal;font-variant-numeric:normal;font-variant-east-asian:normal;fill:#808080;stroke-width:13.0499"
         id="path1012" />
      <path
         d="m -3377.3076,2309.9187 v -451.0044 h 290.6473 v 451.0044 h 175.3906 v -626.395 h -641.4285 v 626.395 z"
         style="font-style:normal;font-variant:normal;font-weight:bold;font-stretch:normal;font-size:1252.79px;font-family:Modelo;-inkscape-font-specification:'Modelo, Bold';font-variant-ligatures:normal;font-variant-caps:normal;font-variant-numeric:normal;font-variant-east-asian:normal;fill:#808080;stroke-width:13.0499"
         id="path1014" />
    </g>
    <g
       aria-label="y-coor"
       id="text851"
       style="font-style:normal;font-variant:normal;font-weight:normal;font-stretch:normal;font-size:179.211px;line-height:1.25;font-family:Modelo;-inkscape-font-specification:'Modelo, Normal';font-variant-ligatures:normal;font-variant-caps:normal;font-variant-numeric:normal;font-variant-east-asian:normal;fill:#ffffff;fill-opacity:1;stroke:none;stroke-width:13.4408;image-rendering:auto">
      <path
         d="m 1043.2285,6030.9063 v -67.921 h -17.9211 v 85.8421 l -28.67373,28.6737 12.54473,12.5448 116.308,-116.1287 -12.724,-12.5448 z"
         id="path971" />
      <path
         d="m 1183.3712,6009.401 v -17.9211 h -53.2256 v 17.9211 z"
         id="path973" />
      <path
         d="m 1292.3315,6052.5908 v -17.9211 h -69.5339 v -53.7633 h 69.5339 v -17.9211 h -87.455 v 89.6055 z"
         id="path975" />
      <path
         d="m 1351.6499,6055.9958 c 27.0608,0 48.3869,-21.1469 48.3869,-48.2077 0,-27.0609 -21.3261,-48.2078 -48.3869,-48.2078 -26.8817,0 -48.2078,21.1469 -48.2078,48.2078 0,27.0608 21.3261,48.2077 48.2078,48.2077 z m 0,-18.1003 c -16.6667,0 -30.1075,-13.4408 -30.1075,-30.1074 0,-16.6667 13.4408,-30.1075 30.1075,-30.1075 16.8458,0 30.2866,13.4408 30.2866,30.1075 0,16.6666 -13.4408,30.1074 -30.2866,30.1074 z"
         id="path977" />
      <path
         d="m 1462.9396,6055.9958 c 27.0609,0 48.387,-21.1469 48.387,-48.2077 0,-27.0609 -21.3261,-48.2078 -48.387,-48.2078 -26.8817,0 -48.2078,21.1469 -48.2078,48.2078 0,27.0608 21.3261,48.2077 48.2078,48.2077 z m 0,-18.1003 c -16.6666,0 -30.1075,-13.4408 -30.1075,-30.1074 0,-16.6667 13.4409,-30.1075 30.1075,-30.1075 16.8458,0 30.2867,13.4408 30.2867,30.1075 0,16.6666 -13.4409,30.1074 -30.2867,30.1074 z"
         id="path979" />
      <path
         d="m 1549.4982,6052.5908 v -71.6844 h 54.6594 v -17.9211 h -72.5805 v 89.6055 z"
         id="path981" />
    </g>
    <rect
       style="fill:#3e3737;stroke:none;stroke-width:14.2785;stroke-miterlimit:4;stroke-dasharray:none;stroke-opacity:1;fill-opacity:0.60882354"
       id="rect865"
       width="706.01917"
       height="916.4671"
       x="1778.6252"
       y="5227.2573" />
    <g
       aria-label="Out"
       id="text863"
       style="font-size:179.211px;line-height:1.25;font-family:Modelo;-inkscape-font-specification:'Modelo, Normal';fill:#ffffff;stroke-width:13.4408">
      <path
         d="m 2050.4659,6056.175 c 36.559,0 66.308,-29.749 66.308,-66.308 0,-36.5591 -29.749,-66.3081 -66.308,-66.3081 -36.5591,0 -66.3081,29.749 -66.3081,66.3081 0,36.559 29.749,66.308 66.3081,66.308 z m 0,-17.9211 c -26.7025,0 -48.387,-21.6845 -48.387,-48.3869 0,-26.7025 21.6845,-48.387 48.387,-48.387 26.7024,0 48.3869,21.6845 48.3869,48.387 0,26.7024 -21.6845,48.3869 -48.3869,48.3869 z"
         style="fill:#ffffff;stroke-width:13.4408"
         id="path984" />
      <path
         d="m 2223.9418,6052.5908 v -89.6055 h -17.9211 v 71.6844 h -50.5375 v -71.6844 h -17.9211 v 89.6055 z"
         style="fill:#ffffff;stroke-width:13.4408"
         id="path986" />
      <path
         d="m 2328.2425,6052.5908 v -17.9211 h -46.5948 v -53.7633 h 32.9748 v -17.9211 h -32.9748 v -35.8422 h -17.9211 v 35.8422 h -22.5806 v 17.9211 h 22.5806 v 71.6844 z"
         style="fill:#ffffff;stroke-width:13.4408"
         id="path988" />
    </g>
    <g
       aria-label="x-scale"
       id="text869"
       style="font-size:179.211px;line-height:1.25;font-family:Modelo;-inkscape-font-specification:'Modelo, Normal';fill:#ffffff;stroke-width:13.4408">
      <path
         d="m 222.18225,5054.0511 33.87088,33.8709 12.72398,-12.5448 -33.87088,-33.8709 33.87088,-33.8708 -12.72398,-12.5448 -33.87088,33.8709 -33.87088,-33.8709 -12.54477,12.5448 33.87088,33.8708 -33.87088,33.8709 12.54477,12.5448 z"
         style="fill:#ffffff;stroke-width:13.4408"
         id="path928" />
      <path
         d="m 334.54739,5043.1192 v -17.9211 h -53.22567 v 17.9211 z"
         style="fill:#ffffff;stroke-width:13.4408"
         id="path930" />
      <path
         d="m 426.12412,5086.3091 v -17.9211 l -39.96405,-39.9641 32.79561,-32.9748 -12.54477,-12.5448 -45.34038,45.5196 39.96405,39.9641 H 339.386 v 17.9211 z"
         style="fill:#ffffff;stroke-width:13.4408"
         id="path932" />
      <path
         d="m 533.29187,5086.3091 v -17.9211 h -69.53386 v -53.7633 h 69.53386 v -17.9211 h -87.45496 v 89.6055 z"
         style="fill:#ffffff;stroke-width:13.4408"
         id="path934" />
      <path
         d="m 641.89342,5086.3091 v -89.6055 h -95.51946 v 17.9211 h 54.83856 l -53.76329,53.7633 v 17.9211 z m -17.9211,-70.9676 v 53.0465 h -53.04645 z"
         style="fill:#ffffff;stroke-width:13.4408"
         id="path936" />
      <path
         d="m 685.79982,5086.3091 v -125.4477 h -17.9211 v 125.4477 z"
         style="fill:#ffffff;stroke-width:13.4408"
         id="path938" />
      <path
         d="m 807.48391,5086.3091 v -17.9211 h -55.01777 l 53.7633,-53.7633 v -17.9211 h -94.4442 v 89.6055 z m -77.77757,-71.6844 h 53.22567 l -53.22567,53.0464 z"
         style="fill:#ffffff;stroke-width:13.4408"
         id="path940" />
    </g>
    <g
       aria-label="y-scale"
       id="text873"
       style="font-size:179.211px;line-height:1.25;font-family:Modelo;-inkscape-font-specification:'Modelo, Normal';fill:#ffffff;stroke-width:13.4408">
      <path
         d="m 1017.1535,5064.6246 v -67.921 h -17.92115 v 85.8421 l -28.67376,28.6737 12.54477,12.5448 116.30794,-116.1287 -12.724,-12.5448 z"
         style="fill:#ffffff;stroke-width:13.4408"
         id="path943" />
      <path
         d="m 1157.2962,5043.1192 v -17.9211 h -53.2257 v 17.9211 z"
         style="fill:#ffffff;stroke-width:13.4408"
         id="path945" />
      <path
         d="m 1248.8729,5086.3091 v -17.9211 l -39.9641,-39.9641 32.7957,-32.9748 -12.5448,-12.5448 -45.3404,45.5196 39.9641,39.9641 h -61.6486 v 17.9211 z"
         style="fill:#ffffff;stroke-width:13.4408"
         id="path947" />
      <path
         d="m 1356.0407,5086.3091 v -17.9211 h -69.5339 v -53.7633 h 69.5339 v -17.9211 h -87.455 v 89.6055 z"
         style="fill:#ffffff;stroke-width:13.4408"
         id="path949" />
      <path
         d="m 1464.6422,5086.3091 v -89.6055 h -95.5195 v 17.9211 h 54.8386 l -53.7633,53.7633 v 17.9211 z m -17.9211,-70.9676 v 53.0465 h -53.0465 z"
         style="fill:#ffffff;stroke-width:13.4408"
         id="path951" />
      <path
         d="m 1508.5486,5086.3091 v -125.4477 h -17.9211 v 125.4477 z"
         style="fill:#ffffff;stroke-width:13.4408"
         id="path953" />
      <path
         d="m 1630.2327,5086.3091 v -17.9211 h -55.0178 l 53.7633,-53.7633 v -17.9211 h -94.4442 v 89.6055 z m -77.7776,-71.6844 h 53.2257 l -53.2257,53.0464 z"
         style="fill:#ffffff;stroke-width:13.4408"
         id="path955" />
    </g>
    <g
       aria-label="x-size"
       id="text877"
       style="font-size:179.211px;line-height:1.25;font-family:Modelo;-inkscape-font-specification:'Modelo, Normal';fill:#ffffff;stroke-width:13.4408">
      <path
         d="m 277.46856,4139.9515 33.87088,33.8709 12.72398,-12.5448 -33.87088,-33.8709 33.87088,-33.8709 -12.72398,-12.5447 -33.87088,33.8709 -33.87088,-33.8709 -12.54477,12.5447 33.87088,33.8709 -33.87088,33.8709 12.54477,12.5448 z"
         style="fill:#ffffff;stroke-width:13.4408"
         id="path893" />
      <path
         d="m 389.83371,4129.0196 v -17.9211 h -53.22567 v 17.9211 z"
         style="fill:#ffffff;stroke-width:13.4408"
         id="path895" />
      <path
         d="m 481.41044,4172.2095 v -17.9211 l -39.96406,-39.9641 32.79562,-32.9748 -12.54477,-12.5448 -45.34039,45.5196 39.96406,39.9641 h -61.64859 v 17.9211 z"
         style="fill:#ffffff;stroke-width:13.4408"
         id="path897" />
      <path
         d="m 510.26298,4071.3137 c 9.6774,0 17.02505,-7.7061 17.02505,-17.2043 0,-9.4982 -7.34765,-17.2042 -17.02505,-17.2042 -9.49818,0 -17.20425,7.706 -17.20425,17.2042 0,9.4982 7.70607,17.2043 17.20425,17.2043 z m 0,-13.4408 c -2.15053,0 -3.76343,-1.6129 -3.76343,-3.7635 0,-2.1505 1.6129,-3.7634 3.76343,-3.7634 1.97133,0 3.76344,1.6129 3.76344,3.7634 0,2.1506 -1.79211,3.7635 -3.76344,3.7635 z m 8.96055,114.3366 v -89.6055 h -17.9211 v 89.6055 z"
         style="fill:#ffffff;stroke-width:13.4408"
         id="path899" />
      <path
         d="m 638.04026,4172.2095 v -17.9211 h -63.61991 l 53.7633,-53.7633 v -17.9211 h -91.39761 v 17.9211 h 66.30807 l -53.7633,53.7633 v 17.9211 z"
         style="fill:#ffffff;stroke-width:13.4408"
         id="path901" />
      <path
         d="m 752.1976,4172.2095 v -17.9211 h -55.01778 l 53.7633,-53.7633 v -17.9211 h -94.44419 v 89.6055 z m -77.77757,-71.6844 h 53.22566 l -53.22566,53.0464 z"
         style="fill:#ffffff;stroke-width:13.4408"
         id="path903" />
    </g>
    <g
       aria-label="y-size"
       id="text881"
       style="font-size:179.211px;line-height:1.25;font-family:Modelo;-inkscape-font-specification:'Modelo, Normal';fill:#ffffff;stroke-width:13.4408">
      <path
         d="m 1072.4397,4150.5249 v -67.9209 h -17.9211 v 85.842 l -28.6738,28.6738 12.5448,12.5448 116.308,-116.1288 -12.724,-12.5447 z"
         style="fill:#ffffff;stroke-width:13.4408"
         id="path906" />
      <path
         d="m 1212.5824,4129.0196 v -17.9211 h -53.2256 v 17.9211 z"
         style="fill:#ffffff;stroke-width:13.4408"
         id="path908" />
      <path
         d="m 1304.1592,4172.2095 v -17.9211 l -39.9641,-39.9641 32.7956,-32.9748 -12.5448,-12.5448 -45.3403,45.5196 39.964,39.9641 h -61.6486 v 17.9211 z"
         style="fill:#ffffff;stroke-width:13.4408"
         id="path910" />
      <path
         d="m 1333.0117,4071.3137 c 9.6774,0 17.025,-7.7061 17.025,-17.2043 0,-9.4982 -7.3476,-17.2042 -17.025,-17.2042 -9.4982,0 -17.2043,7.706 -17.2043,17.2042 0,9.4982 7.7061,17.2043 17.2043,17.2043 z m 0,-13.4408 c -2.1505,0 -3.7634,-1.6129 -3.7634,-3.7635 0,-2.1505 1.6129,-3.7634 3.7634,-3.7634 1.9713,0 3.7634,1.6129 3.7634,3.7634 0,2.1506 -1.7921,3.7635 -3.7634,3.7635 z m 8.9606,114.3366 v -89.6055 h -17.9211 v 89.6055 z"
         style="fill:#ffffff;stroke-width:13.4408"
         id="path912" />
      <path
         d="m 1460.7889,4172.2095 v -17.9211 h -63.6199 l 53.7633,-53.7633 v -17.9211 h -91.3976 v 17.9211 h 66.3081 l -53.7633,53.7633 v 17.9211 z"
         style="fill:#ffffff;stroke-width:13.4408"
         id="path914" />
      <path
         d="m 1574.9463,4172.2095 v -17.9211 h -55.0178 l 53.7633,-53.7633 v -17.9211 h -94.4442 v 89.6055 z m -77.7776,-71.6844 h 53.2257 l -53.2257,53.0464 z"
         style="fill:#ffffff;stroke-width:13.4408"
         id="path916" />
    </g>
    <rect
       style="fill:#ffffff;stroke:none;stroke-width:13.4619;stroke-miterlimit:4;stroke-dasharray:none;stroke-opacity:1"
       id="rect883"
       width="2172.3667"
       height="2172.3667"
       x="210.44803"
       y="610.97809" />
    <g
       aria-label="Seed"
       id="text927"
       style="font-size:179.211px;line-height:1.25;font-family:Modelo;-inkscape-font-specification:'Modelo, Normal';fill:#ffffff;stroke-width:13.4408">
      <path
         d="m 2041.9537,4172.2095 0.7168,-17.5627 -47.4909,-47.4909 49.6414,-49.4623 -12.9032,-12.5447 -62.1862,62.007 47.1325,47.1325 h -87.4549 v 17.9211 z"
         style="fill:#ffffff;stroke-width:13.4408"
         id="path919" />
      <path
         d="m 2159.3364,4172.2095 v -17.9211 h -55.0178 l 53.7633,-53.7633 v -17.9211 h -94.4442 v 89.6055 z m -77.7776,-71.6844 h 53.2257 l -53.2257,53.0464 z"
         style="fill:#ffffff;stroke-width:13.4408"
         id="path921" />
      <path
         d="m 2274.3896,4172.2095 v -17.9211 h -55.0178 l 53.7633,-53.7633 v -17.9211 h -94.4442 v 89.6055 z m -77.7776,-71.6844 h 53.2257 l -53.2257,53.0464 z"
         style="fill:#ffffff;stroke-width:13.4408"
         id="path923" />
      <path
         d="m 2382.9912,4172.2095 v -125.4477 h -17.9211 v 35.8422 h -71.326 v 89.6055 z m -71.326,-71.6844 h 53.4049 v 53.7633 h -53.4049 z"
         style="fill:#ffffff;stroke-width:13.4408"
         id="path925" />
    </g>
    <g
       aria-label="Berlin"
       id="text1522"
       style="font-size:179.211px;line-height:1.25;font-family:Modelo;-inkscape-font-specification:'Modelo, Normal';fill:#333333;stroke-width:13.4408"
       transform="translate(-190.08209)">
      <path
         d="m 1795.476,6367.75 v -17.9211 l -44.8028,-44.8027 44.8028,-44.8028 v -17.9211 H 1679.5265 V 6367.75 Z m -96.4155,-107.5266 h 71.3259 l -44.8027,44.8028 44.8027,44.8027 h -71.3259 z"
         style="fill:#333333;stroke-width:13.4408"
         id="path991" />
      <path
         d="m 1909.4538,6367.75 v -17.9211 h -55.0178 l 53.7633,-53.7633 v -17.9211 h -94.4442 v 89.6055 z m -77.7776,-71.6844 h 53.2257 l -53.2257,53.0465 z"
         style="fill:#333333;stroke-width:13.4408"
         id="path993" />
      <path
         d="m 1946.7294,6367.75 v -71.6844 h 54.6593 v -17.9211 h -72.5804 v 89.6055 z"
         style="fill:#333333;stroke-width:13.4408"
         id="path995" />
      <path
         d="m 2036.3345,6367.75 v -125.4477 h -17.9211 V 6367.75 Z"
         style="fill:#333333;stroke-width:13.4408"
         id="path997" />
      <path
         d="m 2071.4597,6266.8542 c 9.6774,0 17.025,-7.7061 17.025,-17.2042 0,-9.4982 -7.3476,-17.2043 -17.025,-17.2043 -9.4982,0 -17.2043,7.7061 -17.2043,17.2043 0,9.4981 7.7061,17.2042 17.2043,17.2042 z m 0,-13.4408 c -2.1506,0 -3.7635,-1.6129 -3.7635,-3.7634 0,-2.1506 1.6129,-3.7635 3.7635,-3.7635 1.9713,0 3.7634,1.6129 3.7634,3.7635 0,2.1505 -1.7921,3.7634 -3.7634,3.7634 z m 8.9605,114.3366 v -89.6055 h -17.9211 v 89.6055 z"
         style="fill:#333333;stroke-width:13.4408"
         id="path999" />
      <path
         d="m 2124.1475,6367.75 v -71.6844 h 51.4336 v 71.6844 h 17.9211 v -89.6055 h -87.2758 v 89.6055 z"
         style="fill:#333333;stroke-width:13.4408"
         id="path1001" />
    </g>
  </g>
  <g
     inkscape:groupmode="layer"
     id="layer2"
     inkscape:label="components"
     style="display:none">
    <rect
       style="display:inline;fill:#ffff00;fill-opacity:1;stroke:none;stroke-width:13.4619;stroke-miterlimit:4;stroke-dasharray:none;stroke-opacity:1"
       id="rect885"
       width="2172.3667"
       height="2172.3667"
       x="210.44803"
       y="610.97809"
       inkscape:label="noiseDisplay" />
    <circle
       style="fill:#00ff00;fill-opacity:1;stroke:none;stroke-width:13.4619;stroke-miterlimit:4;stroke-dasharray:none;stroke-opacity:1"
       id="circle890"
       cx="1310.2086"
       cy="5576.8726"
       r="234.20827"
       inkscape:label="yCoordinate" />
    <circle
       style="fill:#0000ff;fill-opacity:1;stroke:none;stroke-width:13.4619;stroke-miterlimit:4;stroke-dasharray:none;stroke-opacity:1"
       id="circle892"
       cx="2148.6064"
       cy="5576.8726"
       r="234.20827"
       inkscape:label="mainOut" />
    <circle
       style="fill:#ff0000;fill-opacity:1;stroke:none;stroke-width:13.4619;stroke-miterlimit:4;stroke-dasharray:none;stroke-opacity:1"
       id="circle903"
       cx="465.02222"
       cy="4616.2788"
       r="234.20827"
       inkscape:transform-center-x="-1011.5083"
       inkscape:transform-center-y="984.35368"
       inkscape:label="xScale" />
    <circle
       style="fill:#ff0000;fill-opacity:1;stroke:none;stroke-width:13.4619;stroke-miterlimit:4;stroke-dasharray:none;stroke-opacity:1"
       id="circle905"
       cx="1306.8143"
       cy="3655.6855"
       r="234.20827"
       inkscape:transform-center-x="-1011.5083"
       inkscape:transform-center-y="984.35368"
       inkscape:label="ySize" />
    <circle
       style="fill:#ff0000;fill-opacity:1;stroke:none;stroke-width:13.4619;stroke-miterlimit:4;stroke-dasharray:none;stroke-opacity:1"
       id="circle907"
       cx="465.02222"
       cy="3655.6855"
       r="234.20827"
       inkscape:transform-center-x="-1011.5083"
       inkscape:transform-center-y="984.35368"
       inkscape:label="xSize" />
    <circle
       style="fill:#ff0000;fill-opacity:1;stroke:none;stroke-width:13.4619;stroke-miterlimit:4;stroke-dasharray:none;stroke-opacity:1"
       id="circle911"
       cx="1306.8143"
       cy="4626.4619"
       r="234.20827"
       inkscape:transform-center-x="-1011.5083"
       inkscape:transform-center-y="984.35368"
       inkscape:label="yScale" />
    <circle
       style="fill:#00ff00;fill-opacity:1;stroke:none;stroke-width:13.4619;stroke-miterlimit:4;stroke-dasharray:none;stroke-opacity:1"
       id="circle913"
       cx="471.81088"
       cy="5576.8726"
       r="234.20827"
       inkscape:label="xCoordinate" />
    <circle
       style="fill:#ff0000;fill-opacity:1;stroke:none;stroke-width:13.4619;stroke-miterlimit:4;stroke-dasharray:none;stroke-opacity:1"
       id="circle923"
       cx="2148.6064"
       cy="3655.6855"
       r="234.20827"
       inkscape:transform-center-x="-1011.5083"
       inkscape:transform-center-y="984.35368"
       inkscape:label="seed" />
  </g>
</svg>
