<?xml version="1.0" encoding="UTF-8" standalone="no"?>
<svg
   xmlns:dc="http://purl.org/dc/elements/1.1/"
   xmlns:cc="http://creativecommons.org/ns#"
   xmlns:rdf="http://www.w3.org/1999/02/22-rdf-syntax-ns#"
   xmlns:svg="http://www.w3.org/2000/svg"
   xmlns="http://www.w3.org/2000/svg"
   xmlns:sodipodi="http://sodipodi.sourceforge.net/DTD/sodipodi-0.dtd"
   xmlns:inkscape="http://www.inkscape.org/namespaces/inkscape"
   width="12.69999mm"
   height="12.7mm"
   viewBox="0 0 12.69999 12.7"
   version="1.1"
   id="svg111794"
   inkscape:version="1.0.1 (3bc2e813f5, 2020-09-07)"
   sodipodi:docname="chickenhead_knob.svg">
  <defs
     id="defs111788" />
  <sodipodi:namedview
     id="base"
     pagecolor="#ffffff"
     bordercolor="#666666"
     borderopacity="1.0"
     inkscape:pageopacity="0.0"
     inkscape:pageshadow="2"
     inkscape:zoom="16"
     inkscape:cx="-23.782521"
     inkscape:cy="37.560392"
     inkscape:document-units="mm"
     inkscape:current-layer="layer1"
     showgrid="false"
     fit-margin-top="0"
     fit-margin-left="0"
     fit-margin-right="0"
     fit-margin-bottom="0"
     inkscape:window-width="2544"
     inkscape:window-height="1401"
     inkscape:window-x="0"
     inkscape:window-y="0"
     inkscape:window-maximized="0"
     inkscape:document-rotation="0"
     inkscape:snap-global="false" />
  <metadata
     id="metadata111791">
    <rdf:RDF>
      <cc:Work
         rdf:about="">
        <dc:format>image/svg+xml</dc:format>
        <dc:type
           rdf:resource="http://purl.org/dc/dcmitype/StillImage" />
        <dc:title />
      </cc:Work>
    </rdf:RDF>
  </metadata>
  <g
     inkscape:label="Layer 1"
     inkscape:groupmode="layer"
     id="layer1"
     transform="translate(-127.95617,-62.862058)">
    <path
       inkscape:connector-curvature="0"
       style="fill:#29251d;fill-opacity:1;fill-rule:nonzero;stroke:none;stroke-width:0.226413"
       d="m 138.3816,69.212059 c 0,2.24998 -1.82458,4.075435 -4.07544,4.075435 -2.25086,0 -4.07543,-1.825455 -4.07543,-4.075435 0,-2.250867 1.82457,-4.075437 4.07543,-4.075437 2.25086,0 4.07544,1.82457 4.07544,4.075437"
       id="path847" />
    <path
       inkscape:connector-curvature="0"
       style="fill:#6a5e50;fill-opacity:1;fill-rule:nonzero;stroke:none;stroke-width:0.168995"
       d="m 137.34807,69.212058 c 0,1.679386 -1.36188,3.041907 -3.04192,3.041907 -1.68003,0 -3.0419,-1.362521 -3.0419,-3.041907 0,-1.680048 1.36187,-3.041908 3.0419,-3.041908 1.68004,0 3.04192,1.36186 3.04192,3.041908"
       id="path876" />
    <path
       id="path925"
       style="fill:#0b0a08;fill-opacity:1;fill-rule:nonzero;stroke:none;stroke-width:0.226413"
       d="m 134.30664,65.363281 c -0.43246,0 -0.83642,0.1237 -1.22426,0.254831 -0.40681,0.137549 -0.63184,0.278941 -0.96592,0.530388 -0.25983,0.195564 -0.31243,0.514091 -0.51408,0.781211 -0.28403,0.37624 -0.75189,0.660151 -0.96499,1.111262 -0.16826,0.356187 -0.18036,0.779552 -0.18036,1.171918 0,1.169026 0.44385,2.308726 1.2654,3.01401 0.67341,0.578107 1.62553,0.833646 2.58421,0.833646 1.05075,0 2.08369,-0.343316 2.7774,-1.023927 0.71138,-0.697945 1.07026,-1.746662 1.07026,-2.823729 0,-0.511639 -0.0447,-1.149182 -0.22289,-1.606157 -0.25,-0.641231 -0.71175,-1.06289 -1.23436,-1.474214 -0.65422,-0.514917 -1.49172,-0.769239 -2.39041,-0.769239 z"
       sodipodi:nodetypes="sssssssssssss" />
    <path
       id="path918"
       style="fill:#424242;fill-opacity:0.43067849;fill-rule:nonzero;stroke:none;stroke-width:0.638721"
       d="m 24,12.503906 c -6.34972,0 -11.496094,5.146306 -11.496094,11.496094 0,6.347286 5.146374,11.496094 11.496094,11.496094 6.349757,0 11.496094,-5.148808 11.496094,-11.496094 0,-6.349788 -5.146337,-11.496094 -11.496094,-11.496094 z m -0.02014,0.396868 c 6.217247,0 11.272097,4.885651 11.272097,11.103132 0,6.214927 -5.098892,11.493068 -11.316291,11.493068 -6.217361,0 -11.191521,-5.278334 -11.191521,-11.493068 0,-6.217292 5.018506,-11.103132 11.235715,-11.103132 z"
       transform="matrix(0.26458333,0,0,0.26458333,127.95617,62.862058)"
       sodipodi:nodetypes="ssssssssss" />
    <path
       id="path911"
       style="color:#000000;font-style:normal;font-variant:normal;font-weight:normal;font-stretch:normal;font-size:medium;line-height:normal;font-family:sans-serif;font-variant-ligatures:normal;font-variant-position:normal;font-variant-caps:normal;font-variant-numeric:normal;font-variant-alternates:normal;font-variant-east-asian:normal;font-feature-settings:normal;font-variation-settings:normal;text-indent:0;text-align:start;text-decoration:none;text-decoration-line:none;text-decoration-style:solid;text-decoration-color:#000000;letter-spacing:normal;word-spacing:normal;text-transform:none;writing-mode:lr-tb;direction:ltr;text-orientation:mixed;dominant-baseline:auto;baseline-shift:baseline;text-anchor:start;white-space:normal;shape-padding:0;shape-margin:0;inline-size:0;clip-rule:nonzero;display:inline;overflow:visible;visibility:visible;isolation:auto;mix-blend-mode:normal;color-interpolation:sRGB;color-interpolation-filters:linearRGB;solid-color:#000000;solid-opacity:1;vector-effect:none;fill:#303030;fill-opacity:1;fill-rule:nonzero;stroke:none;stroke-width:0.41749;stroke-linecap:butt;stroke-linejoin:miter;stroke-miterlimit:4;stroke-dasharray:none;stroke-dashoffset:0;stroke-opacity:1;color-rendering:auto;image-rendering:auto;shape-rendering:auto;text-rendering:auto;enable-background:accumulate;stop-color:#000000"
       d="M 24.126953 14.603516 C 23.633876 14.611883 23.220939 14.78668 23.134766 15.115234 C 22.591043 17.768021 16.626304 38.390693 15.65625 43.777344 C 15.506278 44.610348 15.949648 44.866553 16.21875 44.974609 C 19.001805 45.714252 21.206918 45.757812 24.339844 45.757812 C 27.049236 45.757812 29.106572 45.529128 31.144531 45.111328 C 31.952065 44.945758 32.557352 44.781455 32.322266 43.578125 C 31.354177 38.615881 25.505144 17.528415 24.986328 15.111328 C 24.929635 14.845767 24.619992 14.595201 24.126953 14.603516 z M 24.126953 14.642578 C 24.606197 14.634494 24.895864 14.873836 24.947266 15.115234 C 25.208166 16.330678 26.796834 22.206885 28.445312 28.402344 C 30.093829 34.597802 31.801981 41.111227 32.285156 43.587891 C 32.401566 44.182845 32.309751 44.507384 32.099609 44.708984 C 31.889392 44.910584 31.543712 44.995467 31.140625 45.078125 C 29.105123 45.49543 27.048959 45.720703 24.341797 45.720703 C 21.209249 45.720703 19.006809 45.67588 16.228516 44.9375 C 16.09782 44.884473 15.933508 44.798456 15.814453 44.628906 C 15.692752 44.457032 15.615752 44.195971 15.689453 43.787109 C 16.173535 41.099151 17.907702 34.592524 19.587891 28.431641 C 21.26808 22.270757 22.894331 16.457738 23.167969 15.123047 C 23.207276 14.972584 23.322487 14.857142 23.492188 14.775391 C 23.661699 14.693639 23.885063 14.646736 24.126953 14.642578 z "
       transform="matrix(0.26458333,0,0,0.26458333,127.95617,62.862058)" />
    <path
       id="path931"
       style="fill:#27221b;fill-opacity:0.44247788;fill-rule:nonzero;stroke:none;stroke-width:0.226413"
       d="m 134.30664,66.410156 c -1.56212,0 -2.86888,1.257146 -2.76966,2.868881 0.0959,1.558016 1.27728,-1.337426 2.83581,-1.449089 2.76968,-0.198437 2.78424,2.82889 2.78424,1.267188 0,-1.562861 -1.28827,-2.68698 -2.85039,-2.68698 z"
       sodipodi:nodetypes="sssss" />
    <path
       style="color:#000000;font-style:normal;font-variant:normal;font-weight:normal;font-stretch:normal;font-size:medium;line-height:normal;font-family:sans-serif;font-variant-ligatures:normal;font-variant-position:normal;font-variant-caps:normal;font-variant-numeric:normal;font-variant-alternates:normal;font-variant-east-asian:normal;font-feature-settings:normal;font-variation-settings:normal;text-indent:0;text-align:start;text-decoration:none;text-decoration-line:none;text-decoration-style:solid;text-decoration-color:#000000;letter-spacing:normal;word-spacing:normal;text-transform:none;writing-mode:lr-tb;direction:ltr;text-orientation:mixed;dominant-baseline:auto;baseline-shift:baseline;text-anchor:start;white-space:normal;shape-padding:0;shape-margin:0;inline-size:0;clip-rule:nonzero;display:inline;overflow:visible;visibility:visible;isolation:auto;mix-blend-mode:normal;color-interpolation:sRGB;color-interpolation-filters:linearRGB;solid-color:#000000;solid-opacity:1;vector-effect:none;fill:#060604;fill-opacity:1;fill-rule:nonzero;stroke:none;stroke-width:0.118965;stroke-linecap:butt;stroke-linejoin:miter;stroke-miterlimit:4;stroke-dasharray:none;stroke-dashoffset:0;stroke-opacity:1;color-rendering:auto;image-rendering:auto;shape-rendering:auto;text-rendering:auto;enable-background:accumulate;stop-color:#000000"
       d="m 136.05249,75.325398 c -0.49641,0.139274 -0.99725,0.215532 -1.65721,0.215532 -0.76312,0 -1.30052,-0.0146 -1.97841,-0.26116 -0.0656,-0.03603 -0.17346,-0.121256 -0.13692,-0.398934 0.23628,-1.795634 1.66948,-10.960794 1.80192,-11.845097 0.021,-0.109528 0.12164,-0.167623 0.24174,-0.170413 0.1201,-0.0028 0.19581,0.08077 0.20962,0.169296 0.12638,0.805734 1.57073,10.12525 1.80655,11.779408 0.0572,0.401128 -0.0906,0.456176 -0.28729,0.511368 z"
       id="path858"
       sodipodi:nodetypes="sscsczcss" />
    <path
       id="rect880"
       style="fill:#f0f0e9;fill-opacity:1;stroke:none;stroke-width:0.101467"
       d="m 134.17839,62.928608 c -2e-5,-0.04134 0.0463,-0.06318 0.13587,-0.06431 0.0896,-0.0011 0.14528,0.01136 0.14525,0.06431 l -0.001,2.639556 c -0.001,0.04894 -0.0933,0.05139 -0.14233,0.05115 -0.0469,-2.24e-4 -0.13389,-0.0091 -0.13587,-0.07308 z"
       sodipodi:nodetypes="szscscs" />
    <path
       id="rect890"
       style="fill:#241e19;fill-opacity:1;stroke:none;stroke-width:0.0472829"
       d="m 132.53985,74.420632 c 0,0 0.21962,-0.05312 0.33032,-0.05554 0.20984,-0.0046 0.41278,0.08218 0.62261,0.07706 0.16076,-0.0039 0.28971,0.0585 0.45052,0.05824 0.0915,-1.48e-4 0.1857,-0.01429 0.28015,-0.01178 0.11098,0.003 0.22226,0.0226 0.32973,0.02195 0.1973,-0.0012 0.41113,-0.09381 0.60835,-0.0995 0.30057,-0.0087 0.89,-0.0018 0.89,-0.0018 0,0 -0.009,0.01033 -0.032,0.0099 -0.21884,-0.0037 -0.56152,0.01356 -0.86041,0.01909 -0.19797,0.0037 -0.41113,0.101106 -0.60911,0.103674 -0.10812,0.0014 -0.21625,-0.01668 -0.32439,-0.01796 -0.0923,-0.0011 -0.18462,0.01455 -0.27692,0.01585 -0.16078,0.0023 -0.30387,-0.05193 -0.46462,-0.04807 -0.20692,0.005 -0.40108,-0.08999 -0.60802,-0.08573 -0.11264,0.0023 -0.33617,0.04093 -0.33617,0.04093 z"
       sodipodi:nodetypes="csssssscssssssscc" />
    <path
       id="rect935"
       style="fill:#171510;fill-opacity:0.86725664;stroke:none;stroke-width:0.105833"
       d="m 133.72534,65.921304 c 0,0 0.0258,0.300006 0.11142,0.281597 0.17376,-0.03736 0.46615,-0.09212 0.64301,-0.08098 0.11691,0.0074 0.30926,0.07136 0.4082,0.106779 0.0387,0.01386 0.0549,-0.08208 0.0549,-0.08208 l 0.61185,3.966684 c 0,0 -0.18186,-0.436388 -0.50237,-0.628937 -0.28174,-0.169262 -0.69131,-0.09561 -0.89386,-0.122277 -0.2846,-0.03747 -0.86099,-0.01773 -0.86099,-0.01773 z"
       sodipodi:nodetypes="csssccsscc" />
    <path
       id="path883"
       style="color:#000000;font-style:normal;font-variant:normal;font-weight:normal;font-stretch:normal;font-size:medium;line-height:normal;font-family:sans-serif;font-variant-ligatures:normal;font-variant-position:normal;font-variant-caps:normal;font-variant-numeric:normal;font-variant-alternates:normal;font-variant-east-asian:normal;font-feature-settings:normal;font-variation-settings:normal;text-indent:0;text-align:start;text-decoration:none;text-decoration-line:none;text-decoration-style:solid;text-decoration-color:#000000;letter-spacing:normal;word-spacing:normal;text-transform:none;writing-mode:lr-tb;direction:ltr;text-orientation:mixed;dominant-baseline:auto;baseline-shift:baseline;text-anchor:start;white-space:normal;shape-padding:0;shape-margin:0;inline-size:0;clip-rule:nonzero;display:inline;overflow:visible;visibility:visible;isolation:auto;mix-blend-mode:normal;color-interpolation:sRGB;color-interpolation-filters:linearRGB;solid-color:#000000;solid-opacity:1;vector-effect:none;fill:#2e221e;fill-opacity:1;fill-rule:nonzero;stroke:none;stroke-width:0.118965;stroke-linecap:butt;stroke-linejoin:miter;stroke-miterlimit:4;stroke-dasharray:none;stroke-dashoffset:0;stroke-opacity:1;color-rendering:auto;image-rendering:auto;shape-rendering:auto;text-rendering:auto;enable-background:accumulate;stop-color:#000000"
       d="m 132.29147,75.14438 c 0.0304,0.0763 0.0779,0.116752 0.11472,0.136943 0.67789,0.24656 1.21506,0.260966 1.97818,0.260966 0.65996,0 1.16085,-0.07622 1.65726,-0.215491 0.12069,-0.03386 0.22245,-0.0686 0.27027,-0.182418 h -0.0491 c -0.002,0.0037 -0.005,0.0092 -0.007,0.0124 -0.0374,0.04875 -0.13212,0.11805 -0.22892,0.14521 -0.49073,0.137681 -0.98838,0.168466 -1.6428,0.168466 -0.75816,0 -1.19244,0.05404 -1.85467,-0.185002 -0.0423,-0.0159 -0.0629,-0.01823 -0.10283,-0.02997 -0.0245,-0.01364 -0.0812,-0.06853 -0.10594,-0.111105 z" />
    <path
       id="path878"
       style="color:#000000;font-style:normal;font-variant:normal;font-weight:normal;font-stretch:normal;font-size:medium;line-height:normal;font-family:sans-serif;font-variant-ligatures:normal;font-variant-position:normal;font-variant-caps:normal;font-variant-numeric:normal;font-variant-alternates:normal;font-variant-east-asian:normal;font-feature-settings:normal;font-variation-settings:normal;text-indent:0;text-align:start;text-decoration:none;text-decoration-line:none;text-decoration-style:solid;text-decoration-color:#000000;letter-spacing:normal;word-spacing:normal;text-transform:none;writing-mode:lr-tb;direction:ltr;text-orientation:mixed;dominant-baseline:auto;baseline-shift:baseline;text-anchor:start;white-space:normal;shape-padding:0;shape-margin:0;inline-size:0;clip-rule:nonzero;display:inline;overflow:visible;visibility:visible;isolation:auto;mix-blend-mode:normal;color-interpolation:sRGB;color-interpolation-filters:linearRGB;solid-color:#000000;solid-opacity:1;vector-effect:none;fill:#11110e;fill-opacity:1;fill-rule:nonzero;stroke:none;stroke-width:0.41749;stroke-linecap:butt;stroke-linejoin:miter;stroke-miterlimit:4;stroke-dasharray:none;stroke-dashoffset:0;stroke-opacity:1;color-rendering:auto;image-rendering:auto;shape-rendering:auto;text-rendering:auto;enable-background:accumulate;stop-color:#000000"
       d="M 30.027344 34.269531 C 30.597752 38.016981 31.444369 43.501825 31.65625 44.982422 C 32.181149 44.812813 32.503333 44.504948 32.322266 43.578125 C 31.996554 41.908587 31.06923 38.264467 30.027344 34.269531 z M 17.96875 34.355469 C 16.915306 38.328262 15.981002 41.974015 15.65625 43.777344 C 15.506278 44.610348 15.949648 44.866553 16.21875 44.974609 C 16.282493 44.99155 16.339188 44.997453 16.402344 45.013672 C 16.668426 43.029596 17.248213 39.116141 17.96875 34.355469 z "
       transform="matrix(0.26458333,0,0,0.26458333,127.95617,62.862058)" />
    <path
       id="path844"
       style="color:#000000;font-style:normal;font-variant:normal;font-weight:normal;font-stretch:normal;font-size:medium;line-height:normal;font-family:sans-serif;font-variant-ligatures:normal;font-variant-position:normal;font-variant-caps:normal;font-variant-numeric:normal;font-variant-alternates:normal;font-variant-east-asian:normal;font-feature-settings:normal;font-variation-settings:normal;text-indent:0;text-align:start;text-decoration:none;text-decoration-line:none;text-decoration-style:solid;text-decoration-color:#000000;letter-spacing:normal;word-spacing:normal;text-transform:none;writing-mode:lr-tb;direction:ltr;text-orientation:mixed;dominant-baseline:auto;baseline-shift:baseline;text-anchor:start;white-space:normal;shape-padding:0;shape-margin:0;inline-size:0;clip-rule:nonzero;display:inline;overflow:visible;visibility:visible;isolation:auto;mix-blend-mode:normal;color-interpolation:sRGB;color-interpolation-filters:linearRGB;solid-color:#000000;solid-opacity:1;vector-effect:none;fill:#211916;fill-opacity:0.89085501;fill-rule:nonzero;stroke:none;stroke-width:0.118965;stroke-linecap:butt;stroke-linejoin:miter;stroke-miterlimit:4;stroke-dasharray:none;stroke-dashoffset:0;stroke-opacity:1;color-rendering:auto;image-rendering:auto;shape-rendering:auto;text-rendering:auto;enable-background:accumulate;stop-color:#000000"
       d="m 134.26867,62.888118 c -0.11187,0.0081 -0.16928,0.05238 -0.1892,0.156256 -0.13244,0.884303 -1.56567,10.049637 -1.80195,11.845271 -0.0324,0.246644 0.0217,0.306371 0.0863,0.349733 l 0.0263,-0.01435 c -0.0265,-0.02492 -0.0655,-0.06873 -0.0789,-0.09523 -0.0224,-0.04443 4.8e-4,-0.186328 0.0174,-0.315079 0.23549,-1.789648 1.63337,-10.909667 1.7663,-11.797213 0.007,-0.03419 0.0449,-0.07083 0.0729,-0.0894 0.0283,-0.01879 0.0524,-0.0309 0.10083,-0.03275 z"
       sodipodi:nodetypes="ccccccccccc" />
    <path
       id="path860"
       style="color:#000000;font-style:normal;font-variant:normal;font-weight:normal;font-stretch:normal;font-size:medium;line-height:normal;font-family:sans-serif;font-variant-ligatures:normal;font-variant-position:normal;font-variant-caps:normal;font-variant-numeric:normal;font-variant-alternates:normal;font-variant-east-asian:normal;font-feature-settings:normal;font-variation-settings:normal;text-indent:0;text-align:start;text-decoration:none;text-decoration-line:none;text-decoration-style:solid;text-decoration-color:#000000;letter-spacing:normal;word-spacing:normal;text-transform:none;writing-mode:lr-tb;direction:ltr;text-orientation:mixed;dominant-baseline:auto;baseline-shift:baseline;text-anchor:start;white-space:normal;shape-padding:0;shape-margin:0;inline-size:0;clip-rule:nonzero;display:inline;overflow:visible;visibility:visible;isolation:auto;mix-blend-mode:normal;color-interpolation:sRGB;color-interpolation-filters:linearRGB;solid-color:#000000;solid-opacity:1;vector-effect:none;fill:#271f1b;fill-opacity:0.89085501;fill-rule:nonzero;stroke:none;stroke-width:0.118965;stroke-linecap:butt;stroke-linejoin:miter;stroke-miterlimit:4;stroke-dasharray:none;stroke-dashoffset:0;stroke-opacity:1;color-rendering:auto;image-rendering:auto;shape-rendering:auto;text-rendering:auto;enable-background:accumulate;stop-color:#000000"
       d="m 134.32285,62.872505 c -10e-4,3.3e-5 -0.003,4.65e-4 -0.004,5.16e-4 l 0.002,0.0093 0.0305,-0.0031 c 0.0855,-0.002 0.1698,0.07591 0.1788,0.174149 0.12622,0.804731 1.54645,10.115854 1.7818,11.766724 0.0273,0.191463 -0.009,0.293864 -0.046,0.342614 -0.0195,0.02538 -0.0549,0.05553 -0.0977,0.0832 l 0.007,0.04444 c 0.12885,-0.05644 0.20858,-0.158908 0.16433,-0.469222 -0.23582,-1.654158 -1.68023,-10.983727 -1.80661,-11.789461 -0.0138,-0.08853 -0.0892,-0.161963 -0.20929,-0.159163 z"
       sodipodi:nodetypes="sccccccccccs" />
  </g>
</svg>
