<?xml version="1.0" encoding="UTF-8" standalone="no"?>
<svg
   xmlns:osb="http://www.openswatchbook.org/uri/2009/osb"
   xmlns:dc="http://purl.org/dc/elements/1.1/"
   xmlns:cc="http://creativecommons.org/ns#"
   xmlns:rdf="http://www.w3.org/1999/02/22-rdf-syntax-ns#"
   xmlns:svg="http://www.w3.org/2000/svg"
   xmlns="http://www.w3.org/2000/svg"
   xmlns:sodipodi="http://sodipodi.sourceforge.net/DTD/sodipodi-0.dtd"
   xmlns:inkscape="http://www.inkscape.org/namespaces/inkscape"
   sodipodi:docname="nevada.svg"
   inkscape:version="1.0.1 (3bc2e813f5, 2020-09-07)"
   id="svg8"
   version="1.1"
   viewBox="0 0 2064.512 6527.8"
   height="128.5mm"
   width="40.639999mm">
  <defs
     id="defs2">
    <linearGradient
       id="linearGradient1085"
       osb:paint="solid">
      <stop
         style="stop-color:#000000;stop-opacity:1;"
         offset="0"
         id="stop1083" />
    </linearGradient>
    <filter
       inkscape:collect="always"
       style="color-interpolation-filters:sRGB"
       id="filter867"
       x="-6.7128938e-05"
       width="1.0001343"
       y="-0.00056498422"
       height="1.00113">
      <feGaussianBlur
         inkscape:collect="always"
         stdDeviation="0.097951325"
         id="feGaussianBlur869" />
    </filter>
  </defs>
  <sodipodi:namedview
     id="base"
     pagecolor="#ffffff"
     bordercolor="#666666"
     borderopacity="1.0"
     inkscape:pageopacity="0.0"
     inkscape:pageshadow="2"
     inkscape:zoom="3.959798"
     inkscape:cx="96.006973"
     inkscape:cy="79.986614"
     inkscape:document-units="mm"
     inkscape:current-layer="layer1"
     inkscape:document-rotation="0"
     showgrid="false"
     inkscape:pagecheckerboard="true"
     fit-margin-top="0"
     fit-margin-left="0"
     fit-margin-right="0"
     fit-margin-bottom="0"
     lock-margins="true"
     height="128.5mm"
     inkscape:window-width="2560"
     inkscape:window-height="1377"
     inkscape:window-x="-8"
     inkscape:window-y="-8"
     inkscape:window-maximized="1"
     inkscape:snap-grids="false"
     inkscape:snap-others="false"
     inkscape:snap-to-guides="false"
     inkscape:snap-nodes="false"
     inkscape:snap-global="false" />
  <metadata
     id="metadata5">
    <rdf:RDF>
      <cc:Work
         rdf:about="">
        <dc:format>image/svg+xml</dc:format>
        <dc:type
           rdf:resource="http://purl.org/dc/dcmitype/StillImage" />
        <dc:title />
      </cc:Work>
    </rdf:RDF>
  </metadata>
  <g
     inkscape:label="Panel"
     inkscape:groupmode="layer"
     id="layer1"
     style="display:inline">
    <text
       xml:space="preserve"
       style="font-style:normal;font-variant:normal;font-weight:normal;font-stretch:normal;font-size:286.738px;line-height:1.25;font-family:SchoonSquare;-inkscape-font-specification:'SchoonSquare, Normal';font-variant-ligatures:normal;font-variant-caps:normal;font-variant-numeric:normal;font-variant-east-asian:normal;fill:#ffffff;fill-opacity:1;stroke:none;stroke-width:13.4408;image-rendering:auto"
       x="1011.5082"
       y="6052.5908"
       id="text851"><tspan
         sodipodi:role="line"
         id="tspan1510"
         x="1011.5082"
         y="6052.5908">y-coor</tspan></text>
    <rect
       style="fill:#feea00;fill-opacity:1;stroke:none;stroke-width:50.8"
       id="rect833"
       width="2078.2803"
       height="6554.9551"
       x="5.0799999"
       y="5.0799999" />
    <path
       id="rect1005"
       style="fill:#ffffff;fill-opacity:1;stroke-width:13.457"
       d="m 5.2181568,2.9709193 48.1717762,0.6000372 -37.76079,57.8080975 9.187708,86.961376 -8.097932,148.58947 27.26162,116.18745 -7.819234,112.58723 -20.420016,41.78284 13.782107,133.58854 -0.618788,120.98775 -7.000806,88.58575 11.763604,65.78428 -6.019122,132.38846 -3.224837,123.3879 6.187523,102.3866 -7.819234,102.3866 -4.497707,89.9616 -6.340463,114.8116 -1.248978,169.7665 c 0,0 29.743093,11.3041 28.213153,25.4061 -1.529939,14.102 -27.1973,20.5053 -22.674571,27.982 3.82388,6.3214 17.463989,16.334 17.836773,22.5816 0.39024,6.5401 -10.308319,32.345 -12.225394,49.7591 -9.967168,90.5388 -13.9135458,210.2252 -6.601496,317.8301 2.33302,34.333 -1.763729,102.8109 -1.763729,102.8109 0,0 6.560031,7.0032 7.460394,10.9751 1.409955,6.2199 -10.9650135,16.757 -10.9650135,16.757 l 1.1813245,275.1973 9.375945,86.4342 -7.291993,40.7585 12.333488,61.9355 -15.6925145,221.6183 35.7047865,105.9868 -16.990366,133.3598 -0.867331,104.5081 18.650028,65.8976 -0.867331,106.6295 -17.414656,127.4197 19.074318,78.6264 -13.596043,23.8928 -23.354721,172.3946 c 0,0 -3.4041891,179.3048 -0.8954562,269.1194 2.2138962,79.2592 14.7939142,238.0005 14.7939142,238.0005 l -4.695319,171.8244 25.862963,147.3614 c 0,0 -35.558652,136.843 -33.971356,207.0405 0.620638,27.4475 18.640652,80.6019 18.640652,80.6019 l -5.553275,74.0918 -6.826146,242.1107 8.891348,175.3646 -0.01875,115.5396 8.891348,106.2052 c 0,0 -18.042593,53.2948 -22.506141,129.5412 -4.4635482,76.2464 16.104285,325.5633 16.104285,325.5633 l 19.074318,98.9923 c 0,0 10.286672,65.1234 32.030251,72.5833 67.346405,11.0601 53.174675,-33.2327 99.813755,-13.6203 46.63908,19.6124 86.907,38.9322 120.97681,70.8434 12.88175,12.0656 -2.75998,26.0507 28.84238,44.4047 61.07277,15.1295 217.2273,15.5529 217.2273,15.5529 L 1.6180025,6558.7134 Z"
       sodipodi:nodetypes="ccccccccccccccccccczsssscscccccccccccccccscccscccccczccczscccc" />
    <path
       id="path1041"
       style="display:inline;fill:#a1aaaa;fill-opacity:1;stroke-width:13.457"
       d="M 5.2181568,2.9709193 44.055544,3.5709565 12.23482,60.954764 24.816851,148.34043 14.597467,296.9299 l 29.383072,116.18745 -7.819234,112.58723 -20.420016,41.78284 13.782107,133.58854 -0.618788,120.98775 -10.81942,88.58575 15.582218,65.78428 -6.019122,132.38846 -6.61916,123.3879 9.581846,102.3866 -7.819234,102.3866 -6.619159,90.3859 -4.219011,114.3873 -4.2190104,170.1908 c 0,0 32.7131254,10.8798 31.1831854,24.9818 -1.529939,14.102 -29.7430428,20.5053 -25.220313,27.982 3.82388,6.3214 20.009731,16.334 20.382515,22.5816 0.39024,6.5401 -13.702642,32.7693 -15.619717,50.1834 -9.9671679,90.5388 -10.5192228,209.8009 -3.207173,317.4058 2.33302,34.333 -6.430923,105.7809 -6.430923,105.7809 0,0 8.681483,3.6089 9.581846,7.5808 1.409955,6.2199 -8.4192715,17.1813 -8.4192715,17.1813 l 1.1813245,275.1973 5.981622,85.5856 -6.019122,41.1828 13.182069,62.7841 -14.4196435,221.194 33.5833345,105.9868 -16.990366,132.9355 -0.01875,104.0838 16.952866,70.1405 -0.01875,102.3866 -16.990366,127.844 16.952866,76.9292 -11.898881,26.0143 -23.7790117,171.9703 c 0,0 -0.8584464,179.7291 1.6502865,269.5437 2.2138962,79.2592 11.8238812,237.5762 11.8238812,237.5762 l -3.422448,172.2487 25.438673,146.5128 c 0,0 -35.558652,137.6916 -33.9713562,207.8891 0.6206383,27.4475 16.9434902,80.6019 16.9434902,80.6019 l -5.128984,74.0918 -3.431823,242.1107 6.769896,175.3646 -0.01875,115.9639 8.467058,105.7809 c 0,0 -17.618303,53.2948 -22.081851,129.5412 -4.4635482,76.2464 16.952866,326.4119 16.952866,326.4119 l 16.952866,98.9923 c 0,0 12.180902,66.0749 33.924481,73.5348 67.346408,11.0601 53.774718,-32.0327 100.413798,-12.4203 46.63908,19.6124 84.0524,37.7624 118.12221,69.6736 12.88175,12.0656 -2.60555,26.0205 28.99681,44.3745 61.07277,15.1295 220.82752,13.7528 220.82752,13.7528 L 1.6180025,6558.7134 Z"
       sodipodi:nodetypes="ccccccccccccccccccczsssscscccccccccccccccscccscccccczccczscccc" />
    <g
       aria-label="Nevada"
       id="text837"
       style="font-style:normal;font-variant:normal;font-weight:normal;font-stretch:normal;font-size:215.053px;line-height:1.25;font-family:'Atomic Age';-inkscape-font-specification:'Atomic Age, Normal';font-variant-ligatures:normal;font-variant-caps:normal;font-variant-numeric:normal;font-variant-east-asian:normal;fill:#1d1d1d;fill-opacity:1;stroke:none;stroke-width:13.4408;filter:url(#filter867)">
      <path
         d="m 636.42795,106.95159 h 24.8865 v 38.53732 l 39.16737,-30.66185 q 7.03542,-5.88035 10.60564,-6.82541 3.67522,-1.05006 7.03542,-1.05006 3.36021,0 6.93042,1.89011 3.57022,1.78511 6.30038,5.04031 5.67035,7.14043 5.67035,17.43105 v 116.76705 h 23.62642 q -0.84005,7.45545 -6.19537,12.81078 -5.25032,5.25031 -12.18074,5.25031 h -11.34068 q -8.08549,0 -13.86084,-7.77046 -5.77535,-7.66547 -5.77535,-18.69113 V 128.05786 l -49.98302,38.95736 v 99.12598 h -24.8865 z"
         id="path887" />
      <path
         d="m 780.49666,182.87117 q 0,-10.92066 5.77535,-18.79613 5.88035,-7.87548 14.17585,-7.87548 h 55.75837 q 8.1905,0 14.07085,7.87548 5.88036,7.77047 5.88036,18.79613 v 34.96712 h -70.56427 v 30.34683 h 77.07466 q -0.84005,7.56046 -6.09037,12.70577 -5.46033,5.25031 -12.28574,5.25031 h -63.84386 q -8.2955,0 -14.17585,-7.77046 -5.77535,-7.98049 -5.77535,-18.90115 z m 70.56426,20.26623 v -28.98175 h -45.46775 v 28.98175 z"
         id="path889" />
      <path
         d="m 907.44933,156.19956 h 25.09652 l 29.08675,92.40559 28.98176,-92.40559 h 25.09654 L 978.64363,266.1412 h -34.23207 z"
         id="path891" />
      <path
         d="m 1049.1029,185.81135 q 0,-12.70577 6.5104,-21.21128 6.5104,-8.50551 16.1709,-8.50551 h 70.7743 v 92.09056 h 22.7864 q -0.8401,7.56046 -6.0904,12.70577 -5.4603,5.25031 -12.2857,5.25031 h -11.2357 q -5.1453,0 -9.7656,-3.4652 -4.6203,-3.57022 -7.6654,-9.55558 -3.0452,5.98536 -7.6655,9.55558 -4.6203,3.4652 -9.7656,3.4652 h -31.8169 q -8.2955,0 -14.1759,-7.77046 -5.7753,-7.77047 -5.7753,-18.58613 z m 68.4641,62.37377 v -74.02947 h -43.4726 v 74.02947 z"
         id="path893" />
      <path
         d="m 1192.4366,182.87117 q 0,-10.92066 5.7753,-18.79613 5.8804,-7.87548 14.1759,-7.87548 h 48.5129 V 99.181117 h 24.9915 V 248.18512 h 19.9512 q -0.84,7.56046 -6.1954,12.70577 -5.3553,5.25031 -12.1807,5.25031 h -26.5666 v -11.44569 q -2.8352,5.35533 -7.2454,8.40051 -4.4103,3.04518 -9.3456,3.04518 h -31.9219 q -8.2955,0 -14.1759,-7.77046 -5.7753,-7.98049 -5.7753,-18.90115 z m 68.4641,65.31395 v -74.02947 h -43.4726 v 74.02947 z"
         id="path895" />
      <path
         d="m 1335.7702,185.81135 q 0,-12.70577 6.5104,-21.21128 6.5104,-8.50551 16.171,-8.50551 h 70.7743 v 92.09056 h 22.7864 q -0.8401,7.56046 -6.0904,12.70577 -5.4603,5.25031 -12.2858,5.25031 h -11.2356 q -5.1453,0 -9.7656,-3.4652 -4.6203,-3.57022 -7.6655,-9.55558 -3.0452,5.98536 -7.6655,9.55558 -4.6202,3.4652 -9.7655,3.4652 h -31.817 q -8.2955,0 -14.1758,-7.77046 -5.7754,-7.77047 -5.7754,-18.58613 z m 68.4642,62.37377 v -74.02947 h -43.4727 v 74.02947 z"
         id="path897" />
    </g>
    <g
       id="g2165"
       transform="matrix(16.989061,0,0,16.989061,547.13432,6067.8912)">
      <path
         d="m 27.307742,8.792565 h 3.903125 v 16.882509 h -3.903125 z"
         style="font-style:normal;font-variant:normal;font-weight:normal;font-stretch:normal;font-size:16.9333px;line-height:1.25;font-family:DeStencilNF;-inkscape-font-specification:'DeStencilNF, Normal';font-variant-ligatures:normal;font-variant-caps:normal;font-variant-numeric:normal;font-variant-east-asian:normal;fill:#aa0000;stroke-width:0.264583"
         id="path899-2-3-3-2"
         sodipodi:nodetypes="ccccc" />
      <circle
         style="fill:#aa0000;fill-opacity:1;stroke:none;stroke-width:0.289843;stroke-opacity:0.870588"
         id="path934-9-9-4"
         cx="40.119213"
         cy="17.233816"
         r="3.3072917" />
      <path
         d="m 37.414493,9.85086 h 7.078121 l 2.641594,2.84482 h -9.719715 z m 6.857987,4.30109 h 2.861728 l -7.7e-5,8.348622 -2.861651,-4.61e-4 z M 33.113435,9.85086 h 2.861728 v 12.64925 h -2.861728 z"
         style="font-style:normal;font-variant:normal;font-weight:normal;font-stretch:normal;font-size:16.9333px;line-height:1.25;font-family:DeStencilNF;-inkscape-font-specification:'DeStencilNF, Normal';font-variant-ligatures:normal;font-variant-caps:normal;font-variant-numeric:normal;font-variant-east-asian:normal;fill:#000000;fill-opacity:1;stroke-width:0.264583"
         id="path901-8-1"
         sodipodi:nodetypes="ccccccccccccccc" />
      <path
         d="m 32.94714,25.675074 v -1.25729 l 14.186991,-1.05e-4 v 1.25729 z"
         style="font-style:normal;font-variant:normal;font-weight:normal;font-stretch:normal;font-size:16.9333px;line-height:1.25;font-family:DeStencilNF;-inkscape-font-specification:'DeStencilNF, Normal';font-variant-ligatures:normal;font-variant-caps:normal;font-variant-numeric:normal;font-variant-east-asian:normal;fill:#8a8a8a;fill-opacity:1;stroke-width:0.264583"
         id="path899-2-3-3-2-7"
         sodipodi:nodetypes="ccccc" />
      <path
         d="m 11.384131,25.675074 v -1.25729 l 14.349531,-3.9e-4 v 1.25729 z"
         style="font-style:normal;font-variant:normal;font-weight:normal;font-stretch:normal;font-size:16.9333px;line-height:1.25;font-family:DeStencilNF;-inkscape-font-specification:'DeStencilNF, Normal';font-variant-ligatures:normal;font-variant-caps:normal;font-variant-numeric:normal;font-variant-east-asian:normal;fill:#8a8a8a;fill-opacity:1;stroke-width:0.264583"
         id="path899-2-3-3-2-7-2"
         sodipodi:nodetypes="ccccc" />
      <path
         d="m 15.819094,9.851322 h 9.719714 v 2.84482 h -9.719714 z m 6.857986,7.73857 h -4.047058 v -2.84481 h 6.908786 v 7.75549 H 22.67708 Z M 11.518035,9.851322 h 2.861727 v 8.34817 h -2.861727 z m 0,9.80444 h 9.719715 v 2.84481 h -9.719715 z"
         style="font-style:normal;font-variant:normal;font-weight:normal;font-stretch:normal;font-size:16.9333px;line-height:1.25;font-family:DeStencilNF;-inkscape-font-specification:'DeStencilNF, Normal';font-variant-ligatures:normal;font-variant-caps:normal;font-variant-numeric:normal;font-variant-east-asian:normal;fill:#000000;fill-opacity:1;stroke-width:0.264583"
         id="path893-9-7" />
    </g>
    <text
       xml:space="preserve"
       style="font-size:286.737px;line-height:1.25;font-family:SchoonSquare;-inkscape-font-specification:'SchoonSquare, Normal';stroke-width:13.4408"
       x="230.81395"
       y="563.45758"
       id="text1617"><tspan
         sodipodi:role="line"
         id="tspan1615"
         x="230.81395"
         y="563.45758"
         style="stroke-width:13.4408" /></text>
    <g
       aria-label="Shield"
       id="text1629"
       style="font-style:normal;font-variant:normal;font-weight:normal;font-stretch:normal;font-size:232.974px;line-height:1.25;font-family:'Share Tech';-inkscape-font-specification:'Share Tech, Normal';font-variant-ligatures:normal;font-variant-caps:normal;font-variant-numeric:normal;font-variant-east-asian:normal;stroke-width:13.4408"
       inkscape:transform-center-x="902.88993">
      <path
         d="m 1334.6515,3647.8161 q 0,19.8027 -10.9498,29.8206 -10.7168,9.7849 -30.9856,9.7849 h -30.7525 v -17.706 h 33.0823 q 8.62,0 13.9784,-5.1254 5.3584,-5.1254 5.3584,-12.3476 v -24.2293 q 0,-6.9893 -3.7276,-11.1828 -3.4946,-4.4265 -10.7168,-4.4265 h -4.6594 q -17.2401,0 -27.258,-10.0179 -10.0179,-10.2508 -10.0179,-29.5877 v -8.853 q 0,-19.8028 10.7168,-29.5877 10.9498,-10.0179 31.2185,-10.0179 h 30.9856 v 17.7061 h -33.3153 q -8.62,0 -13.9784,5.1254 -5.3584,5.1254 -5.3584,12.3476 v 17.706 q 0,7.2222 4.6594,12.1147 4.6595,4.6595 12.1147,4.6595 h 4.6595 q 16.5411,0 25.6271,9.5519 9.319,9.5519 9.319,28.8888 z"
         id="path962" />
      <path
         d="m 1385.9056,3687.4216 h -19.8028 v -163.0818 h 19.8028 v 51.2543 q 6.9892,-4.6595 17.473,-4.6595 h 6.0573 q 18.8709,0 27.9569,8.853 9.319,8.8531 9.319,28.4229 v 79.2111 h -19.8028 v -83.8706 q 0,-6.9892 -4.1936,-10.9498 -3.9605,-4.1935 -10.9497,-4.1935 h -10.7168 q -7.4552,0 -11.4158,3.9605 -3.7275,3.7276 -3.7275,8.1541 z"
         id="path964" />
      <path
         d="m 1503.7903,3545.3075 h -22.1326 v -20.9677 h 22.1326 z m -1.1649,142.1141 h -19.8028 v -116.487 h 19.8028 z"
         id="path966" />
      <path
         d="m 1607.2305,3687.4216 h -30.0537 q -20.5017,0 -30.0536,-8.62 -9.552,-8.853 -9.552,-28.6558 v -41.9353 q 0,-20.0358 8.6201,-28.6558 8.62,-8.6201 28.6558,-8.6201 h 6.2903 q 33.5482,0 33.5482,36.111 v 30.2866 h -57.3116 v 17.4731 q 0,15.1433 17.4731,15.1433 h 32.3834 z m -49.8565,-83.8706 v 16.3082 h 37.9748 v -17.4731 q 0,-6.0573 -3.9606,-10.0179 -3.9605,-3.9605 -10.0178,-3.9605 h -8.8531 q -8.387,0 -11.8816,3.9605 -3.2617,3.7276 -3.2617,11.1828 z"
         id="path968" />
      <path
         d="m 1679.9183,3687.4216 h -12.8136 q -7.9211,0 -13.9784,-5.5913 -5.8244,-5.5914 -5.8244,-17.7061 v -139.7844 h 19.8028 v 138.6196 q 0,3.7275 1.8638,5.3584 1.8638,1.6308 6.2903,1.6308 h 4.6595 z"
         id="path970" />
      <path
         d="m 1786.154,3687.4216 h -18.6379 v -5.3584 q -7.6882,5.3584 -18.638,5.3584 h -4.8924 q -20.5017,0 -30.0537,-8.62 -9.5519,-8.853 -9.5519,-28.6558 v -41.9353 q 0,-19.5698 9.5519,-28.4229 9.785,-8.853 30.0537,-8.853 h 22.3655 v -46.5948 h 19.8028 z m -34.9461,-17.473 q 7.6881,0 11.4157,-3.9606 3.7276,-4.1935 3.7276,-8.853 v -68.7273 h -24.6953 q -17.473,0 -17.473,15.1433 v 51.2543 q 0,15.1433 17.473,15.1433 z"
         id="path972" />
    </g>
    <g
       aria-label="RAD"
       id="text1621-6"
       style="font-style:normal;font-variant:normal;font-weight:normal;font-stretch:normal;font-size:250.896px;line-height:1.25;font-family:'Share Tech';-inkscape-font-specification:'Share Tech, Normal';font-variant-ligatures:normal;font-variant-caps:normal;font-variant-numeric:normal;font-variant-east-asian:normal;display:inline;stroke-width:13.4408"
       inkscape:transform-center-y="-33.94323">
      <path
         d="m 356.99801,3625.6664 v 72.7599 h -21.82795 v -175.6272 h 44.91039 q 43.15411,0 43.15411,39.1397 v 24.0861 q 0,28.3512 -22.58064,35.3763 l 34.87454,77.0251 h -23.83512 l -32.36558,-72.7599 z m 44.4086,-37.1326 v -28.853 q 0,-9.5341 -4.51613,-13.7993 -4.26523,-4.2652 -13.79928,-4.2652 h -26.09319 v 65.2329 h 26.09319 q 9.53405,0 13.79928,-4.2652 4.51613,-4.5161 4.51613,-14.0502 z"
         id="path954" />
      <path
         d="m 527.60693,3635.2005 -20.57347,-95.8423 -20.32257,95.8423 z m 35.87813,63.2258 h -22.32974 l -9.53405,-44.4086 h -48.92472 l -9.78494,44.4086 h -22.32975 l 42.40143,-175.6272 h 28.85304 z"
         id="path956" />
      <path
         d="m 682.91108,3658.7847 q 0,21.5771 -10.03584,30.6093 -9.78494,9.0323 -32.61648,9.0323 h -49.17561 v -175.6272 h 46.16486 q 22.58064,0 34.12186,9.2831 11.54121,9.0323 11.54121,29.8566 z m -21.82795,2.509 v -101.6129 q 0,-8.2796 -5.01792,-13.0466 -5.01792,-5.0179 -13.29749,-5.0179 H 612.9111 v 137.9928 h 29.60573 q 9.53405,0 14.05017,-4.2653 4.51613,-4.5161 4.51613,-14.0501 z"
         id="path958" />
    </g>
    <g
       aria-label="n"
       id="text3570"
       style="font-size:232.974px;line-height:1.25;font-family:'Share Tech';-inkscape-font-specification:'Share Tech, Normal';fill:#ff0d0d;fill-opacity:1;stroke-width:13.4408"
       transform="matrix(0.80733249,-0.1292933,0.1292933,0.80733249,-2761.8247,2089.1545)">
      <path
         id="path3572"
         style="fill:#ff0d0d;fill-opacity:1;stroke-width:13.4408"
         d="m 3691.2949,2300.9043 a 6.15759,6.15759 0 0 0 -6.1562,6.1562 v 116.4864 a 6.15759,6.15759 0 0 0 6.1562,6.1562 h 19.8028 a 6.15759,6.15759 0 0 0 6.1562,-6.1562 v -86.2012 c 0,-1.4633 0.3964,-2.6345 2.0566,-4.3984 a 6.15759,6.15759 0 0 0 0.1172,-0.1309 c 1.0884,-1.2244 2.8083,-2.1269 6.8145,-2.1269 h 10.7168 c 3.4282,0 5.0733,0.784 6.4726,2.2656 a 6.15759,6.15759 0 0 0 0.2481,0.248 c 1.4816,1.3993 2.2656,3.0444 2.2656,6.4727 v 83.8711 a 6.15759,6.15759 0 0 0 6.1563,6.1562 h 19.8027 a 6.15759,6.15759 0 0 0 6.1562,-6.1562 v -79.211 c 0,-14.0122 -3.3749,-25.4041 -11.2167,-32.8671 -7.5829,-7.3638 -18.6939,-10.5645 -32.2149,-10.5645 h -6.0586 c -4.965,0 -9.5831,0.8202 -13.8105,2.334 a 6.15759,6.15759 0 0 0 -4.8262,-2.334 z" />
    </g>
    <ellipse
       style="fill:#ff0101;fill-opacity:1;stroke-width:16.6027"
       id="circle1668"
       cx="1423.5145"
       cy="5563.2949"
       rx="315.67206"
       ry="312.27771" />
    <circle
       style="fill:#262100;fill-opacity:1;stroke-width:15.0773"
       id="path1657"
       cx="1423.5145"
       cy="5563.2949"
       r="285.12314" />
    <g
       aria-label="Saturate"
       id="text1683"
       style="font-style:normal;font-variant:normal;font-weight:normal;font-stretch:normal;font-size:232.974px;line-height:1.25;font-family:'Share Tech';-inkscape-font-specification:'Share Tech, Normal';font-variant-ligatures:normal;font-variant-caps:normal;font-variant-numeric:normal;font-variant-east-asian:normal;stroke-width:13.4408"
       inkscape:transform-center-x="902.88993">
      <path
         d="m 1198.5458,2197.3073 q 0,19.8028 -10.9498,29.8206 -10.7168,9.7849 -30.9856,9.7849 h -30.7525 v -17.706 h 33.0823 q 8.62,0 13.9784,-5.1254 5.3584,-5.1254 5.3584,-12.3476 v -24.2293 q 0,-6.9892 -3.7276,-11.1828 -3.4946,-4.4265 -10.7168,-4.4265 h -4.6594 q -17.2401,0 -27.258,-10.0179 -10.0179,-10.2508 -10.0179,-29.5877 v -8.853 q 0,-19.8028 10.7168,-29.5877 10.9498,-10.0179 31.2185,-10.0179 h 30.9856 v 17.7061 h -33.3153 q -8.62,0 -13.9784,5.1254 -5.3585,5.1254 -5.3585,12.3476 v 17.706 q 0,7.2222 4.6595,12.1147 4.6595,4.6595 12.1147,4.6595 h 4.6595 q 16.5411,0 25.6271,9.5519 9.319,9.5519 9.319,28.8888 z"
         id="path936" />
      <path
         d="m 1311.538,2236.9128 h -12.8136 q -6.9892,0 -12.8136,-6.9892 -5.3584,6.9892 -14.2114,6.9892 h -16.0752 q -17.706,0 -25.8601,-6.9892 -7.9211,-7.2222 -7.9211,-24.4622 v -4.6595 q 0,-36.111 34.0142,-36.111 h 24.2293 v -11.6487 q 0,-15.1433 -17.4731,-15.1433 h -31.4515 v -17.4731 h 29.1218 q 20.2687,0 29.8206,8.8531 9.785,8.853 9.785,28.4228 v 55.9137 q 0,6.9893 11.6487,6.9893 z m -42.1683,-17.473 q 7.6881,0 9.5519,-4.1935 1.1649,-3.2617 1.1649,-7.4552 v -25.6271 h -24.4623 q -6.0573,0 -10.0179,3.9605 -3.9605,3.9606 -3.9605,10.0179 v 11.6487 q 0,6.0573 2.7956,8.853 2.7957,2.7957 8.8531,2.7957 z"
         id="path938" />
      <path
         d="m 1387.4873,2236.9128 h -22.3655 q -11.8817,0 -18.172,-7.6881 -6.2903,-7.6881 -6.2903,-20.2687 v -71.0571 h -15.1433 v -17.4731 h 15.1433 v -27.9568 h 19.8028 v 27.9568 h 27.025 v 17.4731 h -27.025 v 72.2219 q 0,9.319 10.4839,9.319 h 16.5411 z"
         id="path940" />
      <path
         d="m 1488.5978,2236.9128 h -18.638 v -5.3584 q -7.6881,5.3584 -18.6379,5.3584 h -3.2616 q -18.8709,0 -28.1899,-8.853 -9.0859,-8.853 -9.0859,-28.4228 v -79.2112 h 19.8027 v 83.8707 q 0,6.9892 3.9606,11.1827 4.1935,3.9606 11.1828,3.9606 h 7.9211 q 7.4551,0 10.9497,-3.7276 3.7276,-3.7276 4.1936,-8.3871 v -86.8993 h 19.8028 z"
         id="path942" />
      <path
         d="m 1545.676,2236.9128 h -19.8028 v -116.487 h 18.638 v 6.2903 q 7.6881,-6.2903 18.6379,-6.2903 h 17.0071 v 18.638 h -19.3369 q -7.6881,0 -11.4157,5.1254 -3.7276,5.1254 -3.7276,10.0179 z"
         id="path944" />
      <path
         d="m 1683.829,2236.9128 h -12.8136 q -6.9892,0 -12.8136,-6.9892 -5.3584,6.9892 -14.2114,6.9892 h -16.0752 q -17.706,0 -25.8601,-6.9892 -7.9211,-7.2222 -7.9211,-24.4622 v -4.6595 q 0,-36.111 34.0142,-36.111 h 24.2293 v -11.6487 q 0,-15.1433 -17.4731,-15.1433 h -31.4515 v -17.4731 h 29.1218 q 20.2687,0 29.8207,8.8531 9.7849,8.853 9.7849,28.4228 v 55.9137 q 0,6.9893 11.6487,6.9893 z m -42.1683,-17.473 q 7.6881,0 9.5519,-4.1935 1.1649,-3.2617 1.1649,-7.4552 v -25.6271 h -24.4623 q -6.0573,0 -10.0179,3.9605 -3.9605,3.9606 -3.9605,10.0179 v 11.6487 q 0,6.0573 2.7957,8.853 2.7956,2.7957 8.853,2.7957 z"
         id="path946" />
      <path
         d="m 1759.7783,2236.9128 h -22.3655 q -11.8816,0 -18.1719,-7.6881 -6.2903,-7.6881 -6.2903,-20.2687 v -71.0571 h -15.1434 v -17.4731 h 15.1434 v -27.9568 h 19.8027 v 27.9568 h 27.025 v 17.4731 h -27.025 v 72.2219 q 0,9.319 10.4839,9.319 h 16.5411 z"
         id="path948" />
      <path
         d="m 1851.5698,2236.9128 h -30.0536 q -20.5017,0 -30.0537,-8.62 -9.5519,-8.853 -9.5519,-28.6558 v -41.9353 q 0,-20.0358 8.62,-28.6558 8.6201,-8.6201 28.6558,-8.6201 h 6.2903 q 33.5483,0 33.5483,36.111 v 30.2866 h -57.3116 v 17.4731 q 0,15.1433 17.473,15.1433 h 32.3834 z m -49.8564,-83.8706 v 16.3082 h 37.9747 v -17.4731 q 0,-6.0573 -3.9605,-10.0178 -3.9606,-3.9606 -10.0179,-3.9606 h -8.853 q -8.3871,0 -11.8817,3.9606 -3.2616,3.7275 -3.2616,11.1827 z"
         id="path950" />
    </g>
    <g
       aria-label="Shape"
       id="text1691"
       style="font-style:normal;font-variant:normal;font-weight:normal;font-stretch:normal;font-size:232.974px;line-height:1.25;font-family:'Share Tech';-inkscape-font-specification:'Share Tech, Normal';font-variant-ligatures:normal;font-variant-caps:normal;font-variant-numeric:normal;font-variant-east-asian:normal;stroke-width:13.4408"
       inkscape:transform-center-x="902.88993">
      <path
         d="m 1327.8628,667.89454 q 0,19.80279 -10.9498,29.82067 -10.7168,9.78491 -30.9855,9.78491 h -30.7526 V 689.7941 h 33.0823 q 8.62,0 13.9784,-5.12543 5.3584,-5.12543 5.3584,-12.34762 v -24.2293 q 0,-6.98922 -3.7275,-11.18275 -3.4947,-4.42651 -10.7169,-4.42651 h -4.6594 q -17.2401,0 -27.258,-10.01788 -10.0179,-10.25085 -10.0179,-29.5877 v -8.85301 q 0,-19.80279 10.7168,-29.5877 10.9498,-10.01788 31.2185,-10.01788 h 30.9856 v 17.70603 h -33.3153 q -8.62,0 -13.9784,5.12542 -5.3584,5.12543 -5.3584,12.34763 v 17.70602 q 0,7.22219 4.6594,12.11465 4.6595,4.65948 12.1147,4.65948 h 4.6595 q 16.5411,0 25.6271,9.55193 9.319,9.55194 9.319,28.88878 z"
         id="path914" />
      <path
         d="m 1379.1169,707.50012 h -19.8028 v -163.0818 h 19.8028 v 51.25428 q 6.9892,-4.65948 17.473,-4.65948 h 6.0573 q 18.8709,0 27.9569,8.85301 9.319,8.85302 9.319,28.42283 v 79.21116 h -19.8028 v -83.87064 q 0,-6.98922 -4.1936,-10.94978 -3.9605,-4.19353 -10.9497,-4.19353 h -10.7168 q -7.4552,0 -11.4158,3.96056 -3.7275,3.72758 -3.7275,8.15409 z"
         id="path916" />
      <path
         d="m 1557.5748,707.50012 h -12.8136 q -6.9892,0 -12.8135,-6.98922 -5.3584,6.98922 -14.2114,6.98922 h -16.0752 q -17.7061,0 -25.8602,-6.98922 -7.9211,-7.22219 -7.9211,-24.46227 v -4.65948 q 0,-36.11097 34.0142,-36.11097 h 24.2293 v -11.6487 q 0,-15.14331 -17.473,-15.14331 h -31.4515 v -17.47305 h 29.1217 q 20.2688,0 29.8207,8.85301 9.7849,8.85302 9.7849,28.42283 v 55.91376 q 0,6.98922 11.6487,6.98922 z m -42.1683,-17.47305 q 7.6882,0 9.552,-4.19353 1.1648,-3.26164 1.1648,-7.45517 v -25.62714 h -24.4622 q -6.0574,0 -10.0179,3.96056 -3.9606,3.96056 -3.9606,10.01788 v 11.6487 q 0,6.05733 2.7957,8.85301 2.7957,2.79569 8.853,2.79569 z"
         id="path918" />
      <path
         d="m 1605.3343,747.1057 h -19.8028 V 591.01312 h 18.638 v 5.59138 q 7.2221,-5.59138 18.6379,-5.59138 h 3.7276 q 20.5017,0 30.0536,8.85301 9.5519,8.62004 9.5519,28.42283 v 41.93532 q 0,19.56982 -9.7849,28.42283 -9.5519,8.85301 -29.8206,8.85301 h -21.2007 z m 15.1433,-138.61953 q -7.6881,0 -11.4157,4.19353 -3.7276,3.96056 -3.7276,8.62004 v 68.72733 h 23.5304 q 17.473,0 17.473,-15.14331 v -51.25428 q 0,-15.14331 -17.473,-15.14331 z"
         id="path920" />
      <path
         d="m 1768.4157,707.50012 h -30.0536 q -20.5017,0 -30.0537,-8.62004 -9.5519,-8.85301 -9.5519,-28.6558 v -41.93532 q 0,-20.03576 8.6201,-28.6558 8.62,-8.62004 28.6558,-8.62004 h 6.2903 q 33.5482,0 33.5482,36.11097 v 30.28662 h -57.3116 v 17.47305 q 0,15.14331 17.4731,15.14331 h 32.3833 z m -49.8564,-83.87064 v 16.30818 h 37.9748 v -17.47305 q 0,-6.05732 -3.9606,-10.01788 -3.9606,-3.96056 -10.0179,-3.96056 h -8.853 q -8.3871,0 -11.8817,3.96056 -3.2616,3.72758 -3.2616,11.18275 z"
         id="path922" />
    </g>
    <g
       aria-label="Decay"
       id="text1621-7"
       style="font-style:normal;font-variant:normal;font-weight:normal;font-stretch:normal;font-size:232.974px;line-height:1.25;font-family:'Share Tech';-inkscape-font-specification:'Share Tech, Normal';font-variant-ligatures:normal;font-variant-caps:normal;font-variant-numeric:normal;font-variant-east-asian:normal;display:inline;stroke-width:13.4408">
      <path
         d="m 377.09175,2191.3259 q 0,20.0357 -9.31896,28.4228 -9.08599,8.387 -30.28662,8.387 h -45.6629 v -163.0818 h 42.86721 q 20.96766,0 31.68447,8.6201 10.7168,8.387 10.7168,27.7239 z m -20.26874,2.3297 v -94.3545 q 0,-7.6881 -4.65948,-12.1146 -4.65948,-4.6595 -12.34762,-4.6595 h -27.7239 v 128.1357 h 27.49093 q 8.85301,0 13.04654,-3.9606 4.19353,-4.1935 4.19353,-13.0465 z"
         id="path925" />
      <path
         d="m 480.53199,2228.1357 h -30.05365 q -20.50171,0 -30.05364,-8.62 -9.55194,-8.853 -9.55194,-28.6558 v -41.9353 q 0,-20.0358 8.62004,-28.6558 8.62004,-8.6201 28.6558,-8.6201 h 6.2903 q 33.54826,0 33.54826,36.111 v 30.2866 h -57.31161 v 17.4731 q 0,15.1433 17.47305,15.1433 h 32.38339 z m -49.85644,-83.8706 v 16.3082 h 37.97476 v -17.4731 q 0,-6.0573 -3.96055,-10.0178 -3.96056,-3.9606 -10.01789,-3.9606 h -8.85301 q -8.38706,0 -11.88167,3.9606 -3.26164,3.7275 -3.26164,11.1827 z"
         id="path927" />
      <path
         d="m 584.4383,2228.1357 h -25.39417 q -20.50171,0 -30.05365,-8.62 -9.55193,-8.853 -9.55193,-28.6558 v -41.9353 q 0,-19.5698 9.55193,-28.4228 9.78491,-8.8531 30.05365,-8.8531 h 25.39417 v 17.4731 h -27.72391 q -17.47305,0 -17.47305,15.1433 v 51.2543 q 0,15.1433 17.47305,15.1433 h 27.72391 z"
         id="path929" />
      <path
         d="m 696.2654,2228.1357 h -12.81357 q -6.98922,0 -12.81357,-6.9892 -5.3584,6.9892 -14.21142,6.9892 h -16.0752 q -17.70603,0 -25.86012,-6.9892 -7.92111,-7.2222 -7.92111,-24.4622 v -4.6595 q 0,-36.111 34.0142,-36.111 h 24.2293 v -11.6487 q 0,-15.1433 -17.47305,-15.1433 h -31.45149 v -17.4731 h 29.12175 q 20.26874,0 29.82067,8.8531 9.78491,8.853 9.78491,28.4228 v 55.9137 q 0,6.9893 11.6487,6.9893 z m -42.1683,-17.473 q 7.68815,0 9.55194,-4.1935 1.16487,-3.2617 1.16487,-7.4552 v -25.6271 h -24.46227 q -6.05733,0 -10.01788,3.9605 -3.96056,3.9606 -3.96056,10.0179 v 11.6487 q 0,6.0573 2.79569,8.853 2.79568,2.7957 8.85301,2.7957 z"
         id="path931" />
      <path
         d="m 742.62706,2268.9062 q -4.89245,0 -13.27951,-1.3979 v -17.0071 q 6.52327,0.9319 12.11464,0.9319 6.52328,0 9.31896,-10.4838 l 3.72759,-12.8136 h -4.65948 l -36.11097,-116.487 h 21.43361 l 27.02498,96.2183 22.83145,-96.2183 h 20.26874 l -33.78123,126.7379 q -4.19353,15.8422 -10.01788,23.0644 -5.82435,7.4552 -18.8709,7.4552 z"
         id="path933" />
    </g>
    <path
       id="path910"
       style="fill:#272300;fill-opacity:1;stroke-width:13.4619"
       inkscape:transform-center-x="76.549523"
       inkscape:transform-center-y="-58.968145"
       d="m 1301.2567,4758.2695 c -359.24902,63.6861 -637.57764,349.8791 -691.23157,710.7628 l 470.06157,72.2445 a 353.00955,353.00955 0 0 1 310.2681,-328.4604 z" />
    <path
       id="path951"
       style="fill:#272300;fill-opacity:1;stroke-width:1.00157"
       inkscape:transform-center-x="22.624024"
       inkscape:transform-center-y="9.9410867"
       d="M 86.824219 430.21289 L 59 454.47852 C 60.214795 455.92355 61.489241 457.29611 62.808594 458.60938 L 125.07422 458.60938 L 116.71484 437.125 A 26.263962 26.263962 0 0 1 106.57227 439.16406 A 26.263962 26.263962 0 0 1 86.824219 430.21289 z "
       transform="scale(13.440834)" />
    <path
       id="path953"
       style="fill:#272300;fill-opacity:1;stroke-width:1.00157"
       inkscape:transform-center-x="-4.0403527"
       inkscape:transform-center-y="-62.060495"
       d="M 146.24609 365.05664 L 123.12305 393.88086 A 26.263962 26.263962 0 0 1 131.82422 413.40625 A 26.263962 26.263962 0 0 1 129.79883 423.52148 L 151.52344 430.96289 L 151.52344 369.75781 C 149.86578 368.1087 148.10884 366.53602 146.24609 365.05664 z "
       transform="scale(13.440834)" />
    <path
       id="path961"
       style="fill:#272300;fill-opacity:1;stroke-width:1.08503"
       d="M 108.33789 336.63281 A 78.791935 78.791935 0 0 0 29.546875 415.42578 A 78.791935 78.791935 0 0 0 42.4375 458.60938 L 55.300781 458.60938 A 68.395776 68.395776 0 0 1 39.943359 415.42578 A 68.395776 68.395776 0 0 1 108.0293 347.0293 A 68.395776 68.395776 0 0 1 108.33789 347.0293 A 68.395776 68.395776 0 0 1 151.52344 362.38672 L 151.52344 349.52344 A 78.791935 78.791935 0 0 0 108.33789 336.63281 z "
       transform="scale(13.440834)" />
    <path
       id="rect1043"
       style="fill:#a1aaaa;fill-opacity:1;stroke-width:13.4619"
       d="M 2046.9151,1.2000604 2084.5292,-1.3985897e-5 V 6563.2068 h -25.2015 c 0,0 -9.8862,-28.6127 -11.3831,-43.5385 -12.7963,-127.5974 16.603,-255.9679 21.4631,-384.1132 4.9821,-131.364 7.8857,-394.2963 7.8857,-394.2963 l -6.2915,-408.4282 3.8914,-410.1254 -9.6859,-396.5482 10.6801,-418.6112 3.8913,-428.7942 -29.4022,-347.2856 c 0,0 -17.3029,-35.5944 -13.7827,-53.754 1.3102,-6.7588 12.2339,-16.6409 12.2339,-16.6409 l 28.5509,-394.0846 -4.5944,-924.3653 -14.7773,-46.9329 12.3772,-240.4092 -1.2001,-272.6554 8.9829,-540.80685 -2.8972,-430.49137 z"
       sodipodi:nodetypes="ccccsscccccccsccccccccc" />
    <g
       aria-label="Energy"
       id="text1621"
       style="font-style:normal;font-variant:normal;font-weight:normal;font-stretch:normal;font-size:232.974px;line-height:1.25;font-family:'Share Tech';-inkscape-font-specification:'Share Tech, Normal';font-variant-ligatures:normal;font-variant-caps:normal;font-variant-numeric:normal;font-variant-east-asian:normal;stroke-width:13.4408">
      <path
         d="m 327.57808,704.92743 h -76.41547 v -163.0818 h 76.41547 v 17.0071 h -56.14673 v 53.35105 h 50.32238 v 17.0071 h -50.32238 v 58.70945 h 56.14673 z"
         style="font-style:normal;font-variant:normal;font-weight:normal;font-stretch:normal;font-size:232.974px;font-family:'Share Tech';-inkscape-font-specification:'Share Tech, Normal';font-variant-ligatures:normal;font-variant-caps:normal;font-variant-numeric:normal;font-variant-east-asian:normal;stroke-width:13.4408"
         id="path900" />
      <path
         d="m 379.99713,704.92743 h -19.80279 v -116.487 h 18.63792 v 5.59138 q 7.22219,-5.59138 18.63792,-5.59138 h 6.05732 q 18.8709,0 27.95688,8.85301 9.31896,8.85301 9.31896,28.42283 v 79.21116 h -19.80279 v -83.87064 q 0,-6.98922 -4.19353,-10.94978 -3.96056,-4.19353 -10.94978,-4.19353 h -10.7168 q -7.68814,0 -11.41573,4.19353 -3.72758,3.96056 -3.72758,8.62004 z"
         style="font-style:normal;font-variant:normal;font-weight:normal;font-stretch:normal;font-size:232.974px;font-family:'Share Tech';-inkscape-font-specification:'Share Tech, Normal';font-variant-ligatures:normal;font-variant-caps:normal;font-variant-numeric:normal;font-variant-east-asian:normal;stroke-width:13.4408"
         id="path902" />
      <path
         d="m 544.24367,704.92743 h -30.05365 q -20.50171,0 -30.05365,-8.62004 -9.55193,-8.85301 -9.55193,-28.6558 v -41.93532 q 0,-20.03576 8.62004,-28.6558 8.62004,-8.62004 28.6558,-8.62004 h 6.2903 q 33.54825,0 33.54825,36.11097 v 30.28662 h -57.3116 v 17.47305 q 0,15.14331 17.47305,15.14331 h 32.38339 z m -49.85644,-83.87064 v 16.30818 h 37.97476 v -17.47305 q 0,-6.05732 -3.96056,-10.01788 -3.96055,-3.96056 -10.01788,-3.96056 h -8.85301 q -8.38706,0 -11.88167,3.96056 -3.26164,3.72758 -3.26164,11.18275 z"
         style="font-style:normal;font-variant:normal;font-weight:normal;font-stretch:normal;font-size:232.974px;font-family:'Share Tech';-inkscape-font-specification:'Share Tech, Normal';font-variant-ligatures:normal;font-variant-caps:normal;font-variant-numeric:normal;font-variant-east-asian:normal;stroke-width:13.4408"
         id="path904" />
      <path
         d="m 605.28277,704.92743 h -19.80279 v -116.487 h 18.63792 v 6.2903 q 7.68814,-6.2903 18.63792,-6.2903 h 17.0071 v 18.63792 h -19.33684 q -7.68815,0 -11.41573,5.12543 -3.72758,5.12543 -3.72758,10.01788 z"
         style="font-style:normal;font-variant:normal;font-weight:normal;font-stretch:normal;font-size:232.974px;font-family:'Share Tech';-inkscape-font-specification:'Share Tech, Normal';font-variant-ligatures:normal;font-variant-caps:normal;font-variant-numeric:normal;font-variant-east-asian:normal;stroke-width:13.4408"
         id="path906" />
      <path
         d="m 746.69734,713.08152 q 0,31.45149 -38.90666,31.45149 h -47.06075 v -17.47305 h 49.39049 q 8.38706,0 12.5806,-3.26164 4.19353,-3.26163 4.19353,-8.38706 v -7.45517 q 0,-11.6487 -16.77413,-11.6487 h -38.90666 v -32.15041 q -15.14331,-8.15409 -15.14331,-32.61636 v -5.82435 q 0,-19.56982 9.55194,-28.42283 9.7849,-8.85301 30.05364,-8.85301 h 47.5267 v 43.10019 q 0,17.47305 -9.55194,27.49093 -9.55193,9.78491 -25.39416,9.78491 h -17.24008 v 10.01788 h 16.77413 q 38.90666,0 38.90666,31.45149 z m -38.44071,-61.73811 q 7.22219,0 10.94978,-4.65948 3.72758,-4.65948 4.19353,-9.78491 v -30.98554 h -30.05365 q -17.47305,0 -17.47305,15.14331 v 15.14331 q 0,15.14331 17.47305,15.14331 z"
         style="font-style:normal;font-variant:normal;font-weight:normal;font-stretch:normal;font-size:232.974px;font-family:'Share Tech';-inkscape-font-specification:'Share Tech, Normal';font-variant-ligatures:normal;font-variant-caps:normal;font-variant-numeric:normal;font-variant-east-asian:normal;stroke-width:13.4408"
         id="path908" />
      <path
         d="m 793.05899,745.69788 q -4.89245,0 -13.27951,-1.39784 v -17.00711 q 6.52327,0.9319 12.11464,0.9319 6.52328,0 9.31896,-10.48383 l 3.72759,-12.81357 h -4.65948 l -36.11097,-116.487 h 21.43361 l 27.02498,96.21826 22.83145,-96.21826 H 855.729 l -33.78123,126.73786 q -4.19353,15.84223 -10.01788,23.06442 -5.82435,7.45517 -18.8709,7.45517 z"
         style="font-style:normal;font-variant:normal;font-weight:normal;font-stretch:normal;font-size:232.974px;font-family:'Share Tech';-inkscape-font-specification:'Share Tech, Normal';font-variant-ligatures:normal;font-variant-caps:normal;font-variant-numeric:normal;font-variant-east-asian:normal;stroke-width:13.4408"
         id="path911" />
    </g>
    <path
       id="path4716"
       style="fill:#a1aaaa;fill-opacity:1;fill-rule:nonzero;stroke:none;stroke-width:0;stroke-miterlimit:4;stroke-dasharray:none;stroke-opacity:1"
       d="m 279.61736,5051.1135 c -1e-5,21.166 -14.22973,30.8493 -20.83766,45.3506 -7.46247,16.3767 -7.41323,32.6542 -19.36483,26.0538 -11.27601,-6.2273 -32.16891,0.062 -39.64676,-18.5835 -5.60394,-13.9735 2.44447,-33.5143 2.44446,-52.8209 -2e-5,-45.0692 16.46779,-74.4046 36.60226,-81.6051 21.2186,-7.5882 40.80255,36.5359 40.80253,81.6051 z"
       sodipodi:nodetypes="sssssss" />
    <path
       id="path4719"
       style="fill:#ffffff;fill-opacity:1;fill-rule:nonzero;stroke:none;stroke-width:0;stroke-miterlimit:4;stroke-dasharray:none;stroke-opacity:1"
       d="m 280.60599,5048.8133 c -1e-5,21.166 -14.22973,30.8493 -20.83766,45.3506 -7.46247,16.3767 -7.41323,32.6542 -19.36483,26.0538 -11.27601,-6.2273 10.41424,-12.6859 14.35659,-32.3844 2.79658,-13.9735 19.84555,-31.1141 19.84554,-50.4207 -1e-5,-24.0168 -3.69579,-40.8615 -14.53932,-50.7184 -9.50508,-8.6402 -26.86506,-11.0774 -20.26285,-19.486 13.91649,-17.724 40.80255,36.5359 40.80253,81.6051 z"
       sodipodi:nodetypes="ssssssss" />
  </g>
  <g
     inkscape:groupmode="layer"
     id="layer2"
     inkscape:label="components"
     style="display:none">
    <circle
       style="fill:#0000ff;fill-opacity:1;stroke:none;stroke-width:13.4619;stroke-miterlimit:4;stroke-dasharray:none;stroke-opacity:1"
       id="circle892"
       cx="1423.5145"
       cy="5563.2949"
       r="234.20827"
       inkscape:label="mainOut" />
    <circle
       style="display:inline;fill:#00ff00;fill-opacity:1;stroke:none;stroke-width:13.4619;stroke-miterlimit:4;stroke-dasharray:none;stroke-opacity:1"
       id="circle913-6"
       cx="511.724"
       cy="1689.6938"
       r="234.20828"
       inkscape:label="energy" />
    <circle
       style="display:inline;fill:#00ff00;fill-opacity:1;stroke:none;stroke-width:13.4619;stroke-miterlimit:4;stroke-dasharray:none;stroke-opacity:1"
       id="circle913-6-7"
       cx="1531.0414"
       cy="4633.251"
       r="234.20828"
       inkscape:label="shield" />
    <circle
       style="display:inline;fill:#ff0000;fill-opacity:1;stroke:none;stroke-width:13.4619;stroke-miterlimit:4;stroke-dasharray:none;stroke-opacity:1"
       id="circle907-3"
       cx="1531.0414"
       cy="4031.77"
       r="234.20828"
       inkscape:transform-center-x="-1011.5083"
       inkscape:transform-center-y="984.35368"
       inkscape:label="shield" />
    <circle
       style="display:inline;fill:#00ff00;fill-opacity:1;stroke:none;stroke-width:13.4619;stroke-miterlimit:4;stroke-dasharray:none;stroke-opacity:1"
       id="circle1685"
       cx="1524.2527"
       cy="3161.4724"
       r="234.20828"
       inkscape:label="saturate" />
    <circle
       style="display:inline;fill:#ff0000;fill-opacity:1;stroke:none;stroke-width:13.4619;stroke-miterlimit:4;stroke-dasharray:none;stroke-opacity:1"
       id="circle1687"
       cx="1524.2527"
       cy="2559.9912"
       r="234.20828"
       inkscape:transform-center-x="-1011.5083"
       inkscape:transform-center-y="984.35368"
       inkscape:label="saturate" />
    <circle
       style="display:inline;fill:#00ff00;fill-opacity:1;stroke:none;stroke-width:13.4619;stroke-miterlimit:4;stroke-dasharray:none;stroke-opacity:1"
       id="circle1693"
       cx="1524.2527"
       cy="1689.6938"
       r="234.20828"
       inkscape:label="shape" />
    <circle
       style="display:inline;fill:#ff0000;fill-opacity:1;stroke:none;stroke-width:13.4619;stroke-miterlimit:4;stroke-dasharray:none;stroke-opacity:1"
       id="circle1695"
       cx="1524.2527"
       cy="1088.213"
       r="234.20828"
       inkscape:transform-center-x="-1011.5083"
       inkscape:transform-center-y="984.35368"
       inkscape:label="shape" />
    <circle
       style="display:inline;fill:#00ff00;fill-opacity:1;stroke:none;stroke-width:13.4619;stroke-miterlimit:4;stroke-dasharray:none;stroke-opacity:1"
       id="circle890"
       cx="511.72397"
       cy="4633.251"
       r="234.20827"
       inkscape:label="rand" />
    <circle
       style="display:inline;fill:#ff0000;fill-opacity:1;stroke:none;stroke-width:13.4619;stroke-miterlimit:4;stroke-dasharray:none;stroke-opacity:1"
       id="circle903"
       cx="511.72397"
       cy="4031.77"
       r="234.20827"
       inkscape:transform-center-x="-1011.5083"
       inkscape:transform-center-y="984.35368"
       inkscape:label="rand" />
    <circle
       style="display:inline;fill:#ff0000;fill-opacity:1;stroke:none;stroke-width:13.4619;stroke-miterlimit:4;stroke-dasharray:none;stroke-opacity:1"
       id="circle905"
       cx="511.72397"
       cy="2559.9912"
       inkscape:transform-center-x="-1011.5083"
       inkscape:transform-center-y="984.35368"
       inkscape:label="decay"
       r="234.20827" />
    <circle
       style="display:inline;fill:#ff0000;fill-opacity:1;stroke:none;stroke-width:13.4619;stroke-miterlimit:4;stroke-dasharray:none;stroke-opacity:1"
       id="circle907"
       cx="511.72397"
       cy="1088.213"
       r="234.20827"
       inkscape:transform-center-x="-1011.5083"
       inkscape:transform-center-y="984.35368"
       inkscape:label="energy" />
    <circle
       style="display:inline;fill:#00ff00;fill-opacity:1;stroke:none;stroke-width:13.4619;stroke-miterlimit:4;stroke-dasharray:none;stroke-opacity:1"
       id="circle913"
       cx="511.72397"
       cy="3161.4724"
       inkscape:label="decay"
       r="234.20827" />
  </g>
</svg>
